<?xml version="1.0" encoding="utf-8"?>
<!-- Generator: Adobe Illustrator 18.0.0, SVG Export Plug-In . SVG Version: 6.00 Build 0)  -->
<!DOCTYPE svg PUBLIC "-//W3C//DTD SVG 1.1//EN" "http://www.w3.org/Graphics/SVG/1.1/DTD/svg11.dtd">
<svg version="1.1" id="Capa_1" xmlns="http://www.w3.org/2000/svg" xmlns:xlink="http://www.w3.org/1999/xlink" x="0px" y="0px"
	 viewBox="123.3 137.5 595.3 320.3" enable-background="new 123.3 137.5 595.3 320.3" xml:space="preserve">
<g>
	<path d="M521.8,150.7c-62.1-8.8-125-13.2-187-13.2s-124.9,4.4-187,13.2c-3.3,0.5-6,2.9-6.8,6.1c-23.5,94.8-23.5,186.9,0,281.6
		c0.8,3.2,3.5,5.7,6.8,6.1c62.1,8.8,125.1,13.2,187.1,13.2c0,0,0,0,0,0c62,0,124.9-4.4,187-13.2c3.3-0.5,6-2.9,6.8-6.1
		c23.5-94.7,23.5-186.8,0-281.6C527.9,153.6,525.2,151.2,521.8,150.7z"/>
	<path d="M714.1,150.8c-2.7-1.4-6-1.2-8.5,0.6L574.3,246c-2.4,1.7-3.7,4.5-3.4,7.5c2.8,29.3,2.8,59,0,88.4c-0.3,2.9,1,5.7,3.4,7.5
		l131.3,94.5c1.4,1,3.1,1.5,4.8,1.5c1.3,0,2.6-0.3,3.7-0.9c2.7-1.4,4.5-4.2,4.5-7.3v-279C718.6,155.1,716.9,152.2,714.1,150.8z"/>
</g>
</svg>
