<?xml version="1.0" encoding="utf-8"?>
<!DOCTYPE svg PUBLIC "-//W3C//DTD SVG 1.1//EN" "http://www.w3.org/Graphics/SVG/1.1/DTD/svg11.dtd">
<svg version="1.1" baseProfile="full"
 xmlns="http://www.w3.org/2000/svg"
 xmlns:xlink="http://www.w3.org/1999/xlink"
 xmlns:ev="http://www.w3.org/2001/xml-events" 
  height="24px" 
  width="24px" 
>
<defs>
<linearGradient id="PSgrad_0" x1="65.606%" x2="0%" y1="75.471%" y2="0%">
  <stop offset="0%" stop-color="rgb(19,96,141)" stop-opacity="1" />
  <stop offset="100%" stop-color="rgb(25,125,183)" stop-opacity="1" />
</linearGradient>

</defs><path fill="rgb( 25, 125, 183 )"
 d="M23.4369999999999,11.9369999999999 C23.4359999999999,11.9090000000001 23.4349999999999,11.8810000000001 23.434,11.8530000000001 C23.432,11.79 23.4300000000001,11.7280000000001 23.4269999999999,11.665 C23.425,11.633 23.424,11.6010000000001 23.422,11.569 C23.4190000000001,11.508 23.415,11.4480000000001 23.4110000000001,11.3879999999999 C23.4079999999999,11.3579999999999 23.4059999999999,11.328 23.404,11.298 C23.3979999999999,11.2249999999999 23.3920000000001,11.153 23.385,11.0809999999999 C23.383,11.0650000000001 23.3820000000001,11.048 23.3800000000001,11.0309999999999 C23.3710000000001,10.944 23.3610000000001,10.856 23.3499999999999,10.769 C23.347,10.7429999999999 23.3430000000001,10.7170000000001 23.3399999999999,10.692 C23.3309999999999,10.6300000000001 23.3230000000001,10.568 23.3140000000001,10.5060000000001 C23.309,10.4739999999999 23.3040000000001,10.442 23.299,10.4100000000001 C23.29,10.354 23.2809999999999,10.297 23.271,10.24 C23.2650000000001,10.2090000000001 23.26,10.1769999999999 23.2539999999999,10.146 C23.2429999999999,10.0840000000001 23.231,10.0229999999999 23.2190000000001,9.96199999999999 C23.2139999999999,9.9369999999999 23.2090000000001,9.91200000000003 23.204,9.88699999999994 C23.1869999999999,9.80300000000011 23.1690000000001,9.71900000000005 23.1500000000001,9.63599999999997 C23.144,9.61300000000006 23.1389999999999,9.59099999999989 23.133,9.56899999999996 C23.1189999999999,9.50700000000006 23.104,9.44499999999994 23.088,9.38300000000004 C23.0799999999999,9.35100000000011 23.0719999999999,9.31999999999994 23.0630000000001,9.28800000000001 C23.049,9.2349999999999 23.0350000000001,9.18299999999999 23.02,9.13000000000011 C23.011,9.09699999999998 23.002,9.06500000000005 22.9929999999999,9.03199999999993 C22.9770000000001,8.97800000000007 22.961,8.92399999999998 22.9449999999999,8.87100000000009 C22.9359999999999,8.8420000000001 22.9269999999999,8.8119999999999 22.9179999999999,8.7829999999999 C22.893,8.70299999999997 22.8679999999999,8.62400000000002 22.8409999999999,8.54500000000007 C22.835,8.52700000000004 22.829,8.50999999999999 22.8230000000001,8.49299999999994 C22.8009999999999,8.43000000000006 22.779,8.36599999999999 22.7560000000001,8.30300000000011 C22.7439999999999,8.27199999999993 22.7329999999999,8.24000000000001 22.721,8.20900000000006 C22.703,8.16000000000008 22.684,8.1110000000001 22.665,8.0619999999999 C22.652,8.029 22.6389999999999,7.99600000000009 22.626,7.96299999999997 C22.607,7.91499999999996 22.587,7.86699999999996 22.567,7.81999999999994 C22.5540000000001,7.78800000000001 22.5409999999999,7.75600000000009 22.528,7.72499999999991 C22.5029999999999,7.66799999999989 22.479,7.61200000000008 22.454,7.55600000000004 C22.444,7.53400000000011 22.4349999999999,7.51199999999994 22.425,7.49000000000001 C22.3910000000001,7.41599999999994 22.357,7.34400000000005 22.3219999999999,7.27099999999996 C22.308,7.24000000000001 22.2929999999999,7.21000000000004 22.278,7.18000000000006 C22.2550000000001,7.13400000000001 22.2329999999999,7.08799999999997 22.21,7.04299999999989 C22.193,7.00999999999999 22.1759999999999,6.97700000000009 22.1590000000001,6.94399999999996 C22.1369999999999,6.90100000000007 22.114,6.85799999999995 22.0909999999999,6.81600000000003 C22.0740000000001,6.7829999999999 22.057,6.75099999999998 22.039,6.71900000000005 C22.0139999999999,6.67200000000003 21.9880000000001,6.62599999999998 21.962,6.57999999999993 C21.9459999999999,6.55199999999991 21.931,6.52500000000009 21.915,6.49800000000005 C21.875,6.42900000000009 21.835,6.3599999999999 21.7929999999999,6.29099999999994 C21.7760000000001,6.2639999999999 21.759,6.2360000000001 21.742,6.20900000000006 C21.7149999999999,6.16499999999996 21.6880000000001,6.12100000000009 21.6600000000001,6.077 C21.6400000000001,6.04600000000005 21.6199999999999,6.0150000000001 21.5999999999999,5.98399999999992 C21.5740000000001,5.94399999999996 21.548,5.904 21.521,5.86500000000001 C21.5,5.83400000000006 21.48,5.80300000000011 21.4590000000001,5.77099999999996 C21.4300000000001,5.73099999999999 21.402,5.69000000000005 21.373,5.64899999999989 C21.354,5.62100000000009 21.3340000000001,5.59300000000007 21.3150000000001,5.56500000000005 C21.269,5.5 21.222,5.43599999999992 21.174,5.37200000000007 C21.174,5.37200000000007 21.174,5.37200000000007 21.174,5.37200000000007 C19.925,3.69800000000009 18.2270000000001,2.37699999999995 16.259,1.58699999999999 C16.259,1.58699999999999 16.259,1.58699999999999 16.259,1.58600000000001 C16.181,1.55499999999995 16.1020000000001,1.52499999999998 16.0229999999999,1.495 C16.0170000000001,1.49300000000005 16.011,1.49000000000001 16.0060000000001,1.48800000000006 C15.931,1.46000000000004 15.855,1.43299999999999 15.78,1.40599999999995 C15.769,1.40300000000002 15.759,1.399 15.749,1.39599999999996 C15.6769999999999,1.37099999999998 15.604,1.346 15.5309999999999,1.32299999999998 C15.5170000000001,1.31799999999998 15.5029999999999,1.31399999999996 15.489,1.30899999999997 C15.4190000000001,1.28700000000003 15.3489999999999,1.26499999999999 15.279,1.24400000000003 C15.261,1.23900000000003 15.2429999999999,1.23299999999995 15.2260000000001,1.22799999999995 C15.1579999999999,1.20899999999995 15.0899999999999,1.18899999999996 15.0219999999999,1.17100000000005 C15.001,1.16499999999996 14.98,1.15899999999999 14.9590000000001,1.154 C14.893,1.13599999999997 14.828,1.11900000000003 14.7619999999999,1.10299999999995 C14.7380000000001,1.09699999999998 14.713,1.09100000000001 14.6880000000001,1.08500000000004 C14.625,1.06899999999996 14.5619999999999,1.05499999999995 14.499,1.04100000000005 C14.471,1.03499999999997 14.443,1.029 14.415,1.02300000000002 C14.354,1.00999999999999 14.2940000000001,0.99699999999996 14.232,0.98400000000004 C14.201,0.97799999999995 14.1700000000001,0.97299999999996 14.1389999999999,0.96699999999998 C14.0799999999999,0.95500000000004 14.0219999999999,0.94500000000005 13.963,0.93499999999995 C13.9280000000001,0.92899999999997 13.893,0.923 13.8589999999999,0.91700000000003 C13.8030000000001,0.90800000000002 13.7460000000001,0.899 13.6900000000001,0.89099999999996 C13.652,0.88499999999999 13.6130000000001,0.88 13.575,0.87400000000002 C13.5219999999999,0.86699999999996 13.4680000000001,0.86000000000001 13.414,0.85299999999995 C13.373,0.84799999999996 13.3309999999999,0.84400000000005 13.289,0.83900000000006 C13.2380000000001,0.83299999999997 13.1869999999999,0.827 13.136,0.822 C13.0899999999999,0.81799999999998 13.0440000000001,0.81399999999996 12.998,0.80999999999995 C12.95,0.80600000000004 12.903,0.80100000000004 12.855,0.798 C12.8030000000001,0.79399999999998 12.752,0.79100000000005 12.7,0.78800000000001 C12.6569999999999,0.78499999999997 12.614,0.78200000000004 12.5719999999999,0.77999999999997 C12.511,0.77700000000004 12.45,0.77499999999998 12.3900000000001,0.77300000000002 C12.355,0.77200000000005 12.3199999999999,0.76999999999998 12.2850000000001,0.76900000000001 C12.1890000000001,0.76700000000005 12.0930000000001,0.76599999999996 11.9970000000001,0.76599999999996 C11.9010000000001,0.76599999999996 11.8040000000001,0.76700000000005 11.7090000000001,0.76900000000001 C11.674,0.76999999999998 11.6389999999999,0.77200000000005 11.604,0.77300000000002 C11.5440000000001,0.77499999999998 11.4829999999999,0.77700000000004 11.423,0.77999999999997 C11.3800000000001,0.78200000000004 11.337,0.78499999999997 11.2940000000001,0.78800000000001 C11.242,0.79100000000005 11.191,0.79399999999998 11.1389999999999,0.798 C11.0909999999999,0.80100000000004 11.0440000000001,0.80600000000004 10.9960000000001,0.80999999999995 C10.95,0.81399999999996 10.904,0.81700000000001 10.8579999999999,0.822 C10.807,0.827 10.7560000000001,0.83299999999997 10.7049999999999,0.83900000000006 C10.663,0.84400000000005 10.6210000000001,0.84799999999996 10.5799999999999,0.85299999999995 C10.5260000000001,0.86000000000001 10.472,0.86699999999996 10.4179999999999,0.87400000000002 C10.3800000000001,0.88 10.3420000000001,0.88499999999999 10.3040000000001,0.89099999999996 C10.248,0.899 10.191,0.90800000000002 10.135,0.91700000000003 C10.1010000000001,0.923 10.066,0.92899999999997 10.0319999999999,0.93499999999995 C9.97199999999998,0.94500000000005 9.91399999999999,0.95500000000004 9.85500000000002,0.96699999999998 C9.82400000000007,0.97299999999996 9.79299999999989,0.97799999999995 9.76199999999994,0.98400000000004 C9.70100000000002,0.99699999999996 9.6389999999999,1.00999999999999 9.57799999999997,1.02300000000002 C9.55099999999993,1.029 9.52299999999991,1.03399999999999 9.49499999999989,1.04100000000005 C9.43200000000002,1.05499999999995 9.36799999999994,1.06899999999996 9.30500000000006,1.08500000000004 C9.28099999999995,1.09100000000001 9.25600000000009,1.09699999999998 9.23199999999997,1.10299999999995 C9.16599999999994,1.11900000000003 9.09999999999991,1.13599999999997 9.03500000000008,1.154 C9.0139999999999,1.15899999999999 8.99299999999994,1.16499999999996 8.97199999999998,1.16999999999996 C8.904,1.18899999999996 8.83600000000001,1.20899999999995 8.76800000000003,1.22799999999995 C8.75099999999998,1.23299999999995 8.73399999999992,1.23900000000003 8.71599999999989,1.24400000000003 C8.64499999999998,1.26499999999999 8.57500000000005,1.28700000000003 8.50399999999991,1.30899999999997 C8.49099999999999,1.31299999999999 8.47800000000007,1.31799999999998 8.46399999999994,1.322 C8.3900000000001,1.346 8.31700000000001,1.37099999999998 8.24399999999991,1.39599999999996 C8.2349999999999,1.399 8.22600000000011,1.40300000000002 8.21599999999989,1.40599999999995 C8.1400000000001,1.43299999999999 8.0630000000001,1.46000000000004 7.98700000000008,1.48900000000003 C7.98299999999995,1.49000000000001 7.97800000000007,1.49199999999996 7.97399999999993,1.49400000000003 C5.90200000000004,2.27199999999993 4.11500000000001,3.63300000000004 2.81500000000005,5.37899999999991 C2.76999999999998,5.44000000000005 2.72399999999993,5.50199999999995 2.68000000000006,5.56400000000008 C2.65900000000011,5.59300000000007 2.6389999999999,5.62300000000005 2.61799999999994,5.65200000000004 C2.59099999999989,5.69200000000001 2.5630000000001,5.73099999999999 2.53600000000006,5.76999999999998 C2.5150000000001,5.80199999999991 2.49299999999994,5.83400000000006 2.47199999999998,5.86599999999999 C2.44599999999991,5.90499999999997 2.42100000000005,5.94299999999998 2.39499999999998,5.98199999999997 C2.375,6.0139999999999 2.35400000000004,6.04600000000005 2.33300000000008,6.07799999999997 C2.30700000000002,6.11999999999989 2.27999999999997,6.16300000000001 2.25399999999991,6.20499999999993 C2.2360000000001,6.23399999999992 2.21800000000007,6.26299999999992 2.20000000000005,6.29199999999992 C2.15900000000011,6.3599999999999 2.11899999999991,6.42800000000011 2.07899999999995,6.49800000000005 C2.0630000000001,6.52600000000007 2.04700000000003,6.55400000000009 2.03099999999995,6.58200000000011 C2.00600000000009,6.62799999999993 1.98000000000002,6.673 1.95499999999993,6.71800000000007 C1.9369999999999,6.75099999999998 1.92000000000007,6.7829999999999 1.90200000000004,6.81600000000003 C1.88000000000011,6.85899999999992 1.85699999999997,6.90100000000007 1.83500000000004,6.94299999999998 C1.81799999999998,6.97700000000009 1.80099999999993,7.00999999999999 1.78400000000011,7.04299999999989 C1.76099999999997,7.08799999999997 1.73900000000003,7.13400000000001 1.7170000000001,7.17900000000009 C1.702,7.21000000000004 1.68599999999992,7.24000000000001 1.67200000000003,7.27099999999996 C1.63699999999994,7.34300000000007 1.60300000000007,7.41499999999996 1.56999999999994,7.48700000000008 C1.55999999999995,7.50999999999999 1.54999999999995,7.53400000000011 1.53999999999996,7.55700000000002 C1.5150000000001,7.61200000000008 1.49000000000001,7.66799999999989 1.46599999999989,7.72499999999991 C1.45299999999997,7.75600000000009 1.44000000000005,7.78800000000001 1.42699999999991,7.81999999999994 C1.40699999999993,7.86699999999996 1.38699999999994,7.91499999999996 1.36799999999994,7.96199999999999 C1.35500000000002,7.99600000000009 1.3420000000001,8.029 1.32899999999995,8.0619999999999 C1.30999999999995,8.1110000000001 1.29099999999994,8.16000000000008 1.27299999999991,8.20900000000006 C1.26099999999997,8.24000000000001 1.25,8.27199999999993 1.23800000000006,8.30300000000011 C1.21499999999992,8.36599999999999 1.19299999999998,8.42900000000009 1.17100000000005,8.49299999999994 C1.16499999999996,8.50999999999999 1.15900000000011,8.52700000000004 1.15300000000002,8.54500000000007 C1.12699999999995,8.62400000000002 1.10100000000011,8.70299999999997 1.07600000000002,8.7829999999999 C1.06700000000001,8.8119999999999 1.05799999999999,8.8420000000001 1.04899999999998,8.87100000000009 C1.0329999999999,8.92399999999998 1.01700000000005,8.97800000000007 1.00099999999998,9.03199999999993 C0.99199999999996,9.06500000000005 0.98299999999995,9.09699999999998 0.97399999999993,9.13000000000011 C0.95900000000006,9.18299999999999 0.94499999999994,9.2360000000001 0.93100000000004,9.28800000000001 C0.92200000000003,9.31999999999994 0.91399999999999,9.35100000000011 0.90599999999995,9.38300000000004 C0.8900000000001,9.44499999999994 0.875,9.50700000000006 0.8610000000001,9.56899999999996 C0.85500000000002,9.59099999999989 0.84999999999991,9.61300000000006 0.84500000000003,9.63599999999997 C0.82500000000005,9.71900000000005 0.80700000000002,9.80300000000011 0.78999999999996,9.88699999999994 C0.78500000000008,9.91200000000003 0.77999999999997,9.9369999999999 0.77500000000009,9.96100000000001 C0.76299999999992,10.0229999999999 0.75099999999998,10.0840000000001 0.74000000000001,10.146 C0.73399999999992,10.1769999999999 0.72900000000004,10.2090000000001 0.72299999999996,10.24 C0.71299999999997,10.297 0.70399999999995,10.354 0.69499999999994,10.4110000000001 C0.69000000000005,10.442 0.68499999999995,10.4739999999999 0.68000000000006,10.5060000000001 C0.67100000000005,10.568 0.66200000000003,10.6300000000001 0.654,10.692 C0.65100000000007,10.7170000000001 0.64699999999993,10.7429999999999 0.64400000000001,10.769 C0.63300000000004,10.856 0.62300000000005,10.944 0.61400000000003,11.0309999999999 C0.61200000000008,11.048 0.6110000000001,11.0650000000001 0.60899999999992,11.0809999999999 C0.60200000000009,11.153 0.596,11.2249999999999 0.58999999999992,11.298 C0.58799999999997,11.328 0.58600000000001,11.3579999999999 0.58300000000008,11.3879999999999 C0.57899999999995,11.4480000000001 0.57500000000005,11.508 0.57199999999989,11.569 C0.56999999999994,11.6010000000001 0.56899999999996,11.633 0.56700000000001,11.665 C0.56400000000008,11.7280000000001 0.5619999999999,11.79 0.55999999999995,11.8530000000001 C0.55899999999997,11.8810000000001 0.55799999999999,11.9090000000001 0.55700000000002,11.9369999999999 C0.55500000000006,12.028 0.55400000000009,12.1179999999999 0.55400000000009,12.2090000000001 C0.55400000000009,12.29 0.55500000000006,12.3710000000001 0.55700000000002,12.451 C0.55799999999999,12.4880000000001 0.55899999999997,12.5239999999999 0.55999999999995,12.5599999999999 C0.56099999999992,12.5920000000001 0.5619999999999,12.6220000000001 0.5630000000001,12.654 C0.64200000000005,14.71 1.26299999999992,16.626 2.28800000000001,18.2650000000001 C2.28800000000001,18.2660000000001 2.28800000000001,18.2660000000001 2.28800000000001,18.2660000000001 C2.48199999999997,18.577 2.69100000000003,18.877 2.91300000000001,19.1669999999999 C2.91399999999999,19.1679999999999 2.91499999999996,19.1700000000001 2.91599999999994,19.171 C3.13599999999997,19.4580000000001 3.36899999999991,19.7329999999999 3.61500000000001,19.9970000000001 C3.61999999999989,20.0039999999999 3.62599999999998,20.01 3.63200000000006,20.0160000000001 C3.67800000000011,20.066 3.72499999999991,20.115 3.77299999999991,20.164 C3.77500000000009,20.1659999999999 3.77700000000004,20.1679999999999 3.779,20.1700000000001 C3.92599999999993,20.3219999999999 4.07799999999997,20.471 4.23399999999992,20.615 C4.23900000000003,20.6189999999999 4.24399999999991,20.624 4.24900000000002,20.6289999999999 C4.29500000000007,20.671 4.3420000000001,20.713 4.38799999999992,20.7550000000001 C4.40100000000007,20.7660000000001 4.41399999999999,20.778 4.42699999999991,20.789 C4.47299999999996,20.829 4.51900000000001,20.8699999999999 4.56500000000005,20.9090000000001 C4.57600000000002,20.9190000000001 4.58699999999999,20.9280000000001 4.59799999999996,20.9369999999999 C4.74600000000009,21.0630000000001 4.89699999999993,21.184 5.05199999999991,21.3030000000001 C5.06700000000001,21.3150000000001 5.08300000000008,21.327 5.09799999999996,21.338 C5.14200000000005,21.3720000000001 5.1869999999999,21.405 5.23099999999999,21.4369999999999 C5.25199999999995,21.453 5.27299999999991,21.4680000000001 5.29500000000007,21.4829999999999 C5.33799999999997,21.5150000000001 5.38200000000006,21.547 5.42599999999993,21.578 C5.44699999999989,21.5920000000001 5.46800000000007,21.606 5.48900000000003,21.6210000000001 C5.63599999999997,21.723 5.78500000000008,21.8209999999999 5.93599999999992,21.9159999999999 C5.96199999999999,21.932 5.98700000000008,21.9480000000001 6.01299999999992,21.963 C6.05500000000006,21.99 6.09699999999998,22.0150000000001 6.1400000000001,22.04 C6.16799999999989,22.057 6.19699999999989,22.0740000000001 6.22600000000011,22.0909999999999 C6.26800000000003,22.116 6.30999999999995,22.1400000000001 6.35200000000009,22.164 C6.38100000000009,22.181 6.41100000000006,22.1969999999999 6.44100000000003,22.2139999999999 C6.58799999999997,22.2950000000001 6.7360000000001,22.374 6.88699999999994,22.4490000000001 C6.92000000000007,22.4659999999999 6.95299999999997,22.482 6.9860000000001,22.498 C7.02700000000004,22.519 7.06899999999996,22.539 7.1099999999999,22.558 C7.14400000000001,22.5740000000001 7.17900000000009,22.5899999999999 7.21299999999997,22.606 C7.25399999999991,22.625 7.29600000000005,22.644 7.33699999999999,22.663 C7.37300000000005,22.6780000000001 7.4079999999999,22.693 7.44299999999998,22.7090000000001 C7.4849999999999,22.7270000000001 7.52600000000007,22.7449999999999 7.56700000000001,22.7619999999999 C7.56700000000001,22.7619999999999 7.56700000000001,22.7619999999999 7.56799999999998,22.7619999999999 C8.93000000000006,23.335 10.4269999999999,23.652 11.9970000000001,23.652 C13.546,23.652 15.0229999999999,23.3430000000001 16.3710000000001,22.7850000000001 C16.3710000000001,22.7850000000001 16.3710000000001,22.7850000000001 16.3710000000001,22.7850000000001 C16.441,22.7570000000001 16.51,22.7270000000001 16.578,22.6969999999999 C16.585,22.694 16.5920000000001,22.691 16.5989999999999,22.6880000000001 C16.6659999999999,22.6579999999999 16.7329999999999,22.6279999999999 16.8,22.597 C16.8050000000001,22.595 16.8109999999999,22.5920000000001 16.817,22.5889999999999 C17.1669999999999,22.4269999999999 17.5070000000001,22.2470000000001 17.837,22.0509999999999 C17.8430000000001,22.047 17.8499999999999,22.0429999999999 17.857,22.039 C17.9159999999999,22.0029999999999 17.9749999999999,21.9680000000001 18.0329999999999,21.931 C18.0450000000001,21.924 18.057,21.9159999999999 18.069,21.9090000000001 C18.126,21.873 18.182,21.837 18.2380000000001,21.8009999999999 C18.25,21.7929999999999 18.261,21.7850000000001 18.2729999999999,21.778 C18.3309999999999,21.74 18.3879999999999,21.702 18.4449999999999,21.663 C18.4469999999999,21.662 18.4490000000001,21.6600000000001 18.452,21.6579999999999 C18.636,21.5319999999999 18.816,21.4010000000001 18.992,21.2650000000001 C19.001,21.258 19.011,21.251 19.02,21.2439999999999 C19.067,21.2059999999999 19.114,21.1690000000001 19.1610000000001,21.1310000000001 C19.1800000000001,21.116 19.1990000000001,21.1010000000001 19.2180000000001,21.085 C19.2619999999999,21.05 19.3050000000001,21.0139999999999 19.348,20.9780000000001 C19.3689999999999,20.9590000000001 19.3910000000001,20.941 19.413,20.923 C19.454,20.8879999999999 19.4949999999999,20.8530000000001 19.5360000000001,20.817 C19.558,20.797 19.5809999999999,20.777 19.6030000000001,20.7570000000001 C19.643,20.721 19.683,20.6859999999999 19.722,20.6500000000001 C19.7429999999999,20.6310000000001 19.7639999999999,20.6110000000001 19.7840000000001,20.5920000000001 C19.8699999999999,20.5129999999999 19.954,20.433 20.0360000000001,20.3510000000001 C20.048,20.3399999999999 20.0599999999999,20.329 20.0709999999999,20.317 C20.104,20.2840000000001 20.1369999999999,20.251 20.1690000000001,20.2180000000001 C20.1969999999999,20.1900000000001 20.2239999999999,20.162 20.251,20.134 C20.2809999999999,20.1020000000001 20.3119999999999,20.0699999999999 20.3420000000001,20.037 C20.3699999999999,20.0070000000001 20.3989999999999,19.9770000000001 20.4269999999999,19.9459999999999 C20.4559999999999,19.915 20.4839999999999,19.883 20.5129999999999,19.8520000000001 C20.5419999999999,19.819 20.5709999999999,19.7860000000001 20.5999999999999,19.7529999999999 C20.627,19.723 20.654,19.692 20.6800000000001,19.6610000000001 C20.711,19.625 20.742,19.5889999999999 20.7719999999999,19.5530000000001 C20.796,19.5239999999999 20.8199999999999,19.4949999999999 20.8440000000001,19.4659999999999 C20.8820000000001,19.4200000000001 20.9200000000001,19.373 20.9570000000001,19.326 C20.972,19.307 20.9880000000001,19.287 21.0039999999999,19.268 C21.0550000000001,19.202 21.106,19.136 21.1559999999999,19.069 C21.174,19.0450000000001 21.192,19.02 21.21,18.9960000000001 C21.2429999999999,18.951 21.2760000000001,18.9059999999999 21.308,18.8610000000001 C21.328,18.8330000000001 21.348,18.8050000000001 21.367,18.777 C21.3979999999999,18.7349999999999 21.4269999999999,18.691 21.4570000000001,18.6479999999999 C21.4760000000001,18.6199999999999 21.4960000000001,18.5909999999999 21.5150000000001,18.5619999999999 C21.5450000000001,18.518 21.5740000000001,18.4739999999999 21.6030000000001,18.4290000000001 C21.6210000000001,18.4010000000001 21.6389999999999,18.373 21.6569999999999,18.346 C21.6880000000001,18.297 21.7180000000001,18.248 21.748,18.1990000000001 C21.7629999999999,18.174 21.778,18.1500000000001 21.7929999999999,18.126 C21.837,18.0540000000001 21.8800000000001,17.981 21.922,17.9079999999999 C21.923,17.9069999999999 21.924,17.9059999999999 21.924,17.904 C21.924,17.904 21.924,17.904 21.924,17.904 C22.819,16.348 23.3579999999999,14.5599999999999 23.431,12.654 C23.432,12.623 23.433,12.5920000000001 23.434,12.5599999999999 C23.4349999999999,12.5239999999999 23.4359999999999,12.4880000000001 23.4369999999999,12.452 C23.4390000000001,12.3710000000001 23.4400000000001,12.29 23.4400000000001,12.2090000000001 C23.4400000000001,12.1179999999999 23.4390000000001,12.028 23.4369999999999,11.9369999999999 ZM12.4639999999999,4.34400000000005 C12.4639999999999,4.34400000000005 15.3510000000001,2.24600000000009 15.3510000000001,2.24600000000009 C15.5989999999999,2.32999999999993 15.845,2.42200000000003 16.087,2.52500000000009 C17.3389999999999,3.05400000000009 18.463,3.8119999999999 19.4280000000001,4.77800000000002 C19.9549999999999,5.30400000000009 20.4190000000001,5.87899999999991 20.819,6.49499999999989 C20.819,6.49499999999989 19.8109999999999,9.67699999999991 19.8109999999999,9.67699999999991 C19.8109999999999,9.67699999999991 16.808,10.663 16.808,10.663 C16.808,10.663 12.4639999999999,7.50700000000006 12.4639999999999,7.50700000000006 C12.4639999999999,7.50700000000006 12.4639999999999,4.34400000000005 12.4639999999999,4.34400000000005 ZM4.56600000000003,4.77800000000002 C5.53099999999995,3.8119999999999 6.65499999999997,3.05400000000009 7.90699999999993,2.52500000000009 C8.14899999999989,2.42200000000003 8.39499999999998,2.32999999999993 8.64300000000003,2.24600000000009 C8.64300000000003,2.24600000000009 11.53,4.34400000000005 11.53,4.34400000000005 C11.53,4.34400000000005 11.53,7.50700000000006 11.53,7.50700000000006 C11.53,7.50700000000006 7.16300000000001,10.6800000000001 7.16300000000001,10.6800000000001 C7.16300000000001,10.6800000000001 4.1880000000001,9.69100000000003 4.1880000000001,9.69100000000003 C4.1880000000001,9.69100000000003 3.17499999999995,6.49499999999989 3.17499999999995,6.49499999999989 C3.57500000000005,5.87899999999991 4.03899999999999,5.30400000000009 4.56600000000003,4.77800000000002 ZM6.40300000000002,18.9169999999999 C6.40300000000002,18.9169999999999 3.55199999999991,18.4659999999999 3.55199999999991,18.4659999999999 C3.05500000000006,17.797 2.64100000000008,17.0719999999999 2.31400000000008,16.299 C1.77800000000002,15.0319999999999 1.50099999999998,13.6880000000001 1.48900000000003,12.3019999999999 C1.48900000000003,12.3019999999999 3.89799999999991,10.579 3.89799999999991,10.579 C3.89799999999991,10.579 6.875,11.568 6.875,11.568 C6.875,11.568 8.56099999999992,16.759 8.56099999999992,16.759 C8.56099999999992,16.759 6.40300000000002,18.9169999999999 6.40300000000002,18.9169999999999 ZM16.5450000000001,21.6849999999999 C16.395,21.758 16.242,21.827 16.087,21.8920000000001 C14.7919999999999,22.4400000000001 13.4159999999999,22.7180000000001 11.9970000000001,22.7180000000001 C10.578,22.7180000000001 9.202,22.4400000000001 7.90699999999993,21.8920000000001 C7.73299999999995,21.819 7.5619999999999,21.74 7.39300000000003,21.6579999999999 C7.39300000000003,21.6579999999999 7.0630000000001,19.578 7.0630000000001,19.578 C7.0630000000001,19.578 9.39100000000008,17.25 9.39100000000008,17.25 C9.39100000000008,17.25 14.9300000000001,17.25 14.9300000000001,17.25 C14.9300000000001,17.25 16.931,19.251 16.931,19.251 C16.931,19.251 16.5450000000001,21.6849999999999 16.5450000000001,21.6849999999999 ZM21.6800000000001,16.299 C21.412,16.932 21.086,17.5329999999999 20.703,18.097 C20.703,18.097 17.5909999999999,18.5899999999999 17.5909999999999,18.5899999999999 C17.5909999999999,18.5899999999999 15.5129999999999,16.5119999999999 15.5129999999999,16.5119999999999 C15.5129999999999,16.5119999999999 17.1279999999999,11.54 17.1279999999999,11.54 C17.1279999999999,11.54 20.0830000000001,10.5699999999999 20.0830000000001,10.5699999999999 C20.0830000000001,10.5699999999999 22.5050000000001,12.3019999999999 22.5050000000001,12.3019999999999 C22.4929999999999,13.6880000000001 22.2159999999999,15.0319999999999 21.6800000000001,16.299 Z "/>
<path fill="url(#PSgrad_0)"
 d="M23.4369999999999,11.9369999999999 C23.4359999999999,11.9090000000001 23.4349999999999,11.8810000000001 23.434,11.8530000000001 C23.432,11.79 23.4300000000001,11.7280000000001 23.4269999999999,11.665 C23.425,11.633 23.424,11.6010000000001 23.422,11.569 C23.4190000000001,11.508 23.415,11.4480000000001 23.4110000000001,11.3879999999999 C23.4079999999999,11.3579999999999 23.4059999999999,11.328 23.404,11.298 C23.3979999999999,11.2249999999999 23.3920000000001,11.153 23.385,11.0809999999999 C23.383,11.0650000000001 23.3820000000001,11.048 23.3800000000001,11.0309999999999 C23.3710000000001,10.944 23.3610000000001,10.856 23.3499999999999,10.769 C23.347,10.7429999999999 23.3430000000001,10.7170000000001 23.3399999999999,10.692 C23.3309999999999,10.6300000000001 23.3230000000001,10.568 23.3140000000001,10.5060000000001 C23.309,10.4739999999999 23.3040000000001,10.442 23.299,10.4100000000001 C23.29,10.354 23.2809999999999,10.297 23.271,10.24 C23.2650000000001,10.2090000000001 23.26,10.1769999999999 23.2539999999999,10.146 C23.2429999999999,10.0840000000001 23.231,10.0229999999999 23.2190000000001,9.96199999999999 C23.2139999999999,9.9369999999999 23.2090000000001,9.91200000000003 23.204,9.88699999999994 C23.1869999999999,9.80300000000011 23.1690000000001,9.71900000000005 23.1500000000001,9.63599999999997 C23.144,9.61300000000006 23.1389999999999,9.59099999999989 23.133,9.56899999999996 C23.1189999999999,9.50700000000006 23.104,9.44499999999994 23.088,9.38300000000004 C23.0799999999999,9.35100000000011 23.0719999999999,9.31999999999994 23.0630000000001,9.28800000000001 C23.049,9.2349999999999 23.0350000000001,9.18299999999999 23.02,9.13000000000011 C23.011,9.09699999999998 23.002,9.06500000000005 22.9929999999999,9.03199999999993 C22.9770000000001,8.97800000000007 22.961,8.92399999999998 22.9449999999999,8.87100000000009 C22.9359999999999,8.8420000000001 22.9269999999999,8.8119999999999 22.9179999999999,8.7829999999999 C22.893,8.70299999999997 22.8679999999999,8.62400000000002 22.8409999999999,8.54500000000007 C22.835,8.52700000000004 22.829,8.50999999999999 22.8230000000001,8.49299999999994 C22.8009999999999,8.43000000000006 22.779,8.36599999999999 22.7560000000001,8.30300000000011 C22.7439999999999,8.27199999999993 22.7329999999999,8.24000000000001 22.721,8.20900000000006 C22.703,8.16000000000008 22.684,8.1110000000001 22.665,8.0619999999999 C22.652,8.029 22.6389999999999,7.99600000000009 22.626,7.96299999999997 C22.607,7.91499999999996 22.587,7.86699999999996 22.567,7.81999999999994 C22.5540000000001,7.78800000000001 22.5409999999999,7.75600000000009 22.528,7.72499999999991 C22.5029999999999,7.66799999999989 22.479,7.61200000000008 22.454,7.55600000000004 C22.444,7.53400000000011 22.4349999999999,7.51199999999994 22.425,7.49000000000001 C22.3910000000001,7.41599999999994 22.357,7.34400000000005 22.3219999999999,7.27099999999996 C22.308,7.24000000000001 22.2929999999999,7.21000000000004 22.278,7.18000000000006 C22.2550000000001,7.13400000000001 22.2329999999999,7.08799999999997 22.21,7.04299999999989 C22.193,7.00999999999999 22.1759999999999,6.97700000000009 22.1590000000001,6.94399999999996 C22.1369999999999,6.90100000000007 22.114,6.85799999999995 22.0909999999999,6.81600000000003 C22.0740000000001,6.7829999999999 22.057,6.75099999999998 22.039,6.71900000000005 C22.0139999999999,6.67200000000003 21.9880000000001,6.62599999999998 21.962,6.57999999999993 C21.9459999999999,6.55199999999991 21.931,6.52500000000009 21.915,6.49800000000005 C21.875,6.42900000000009 21.835,6.3599999999999 21.7929999999999,6.29099999999994 C21.7760000000001,6.2639999999999 21.759,6.2360000000001 21.742,6.20900000000006 C21.7149999999999,6.16499999999996 21.6880000000001,6.12100000000009 21.6600000000001,6.077 C21.6400000000001,6.04600000000005 21.6199999999999,6.0150000000001 21.5999999999999,5.98399999999992 C21.5740000000001,5.94399999999996 21.548,5.904 21.521,5.86500000000001 C21.5,5.83400000000006 21.48,5.80300000000011 21.4590000000001,5.77099999999996 C21.4300000000001,5.73099999999999 21.402,5.69000000000005 21.373,5.64899999999989 C21.354,5.62100000000009 21.3340000000001,5.59300000000007 21.3150000000001,5.56500000000005 C21.269,5.5 21.222,5.43599999999992 21.174,5.37200000000007 C21.174,5.37200000000007 21.174,5.37200000000007 21.174,5.37200000000007 C19.925,3.69800000000009 18.2270000000001,2.37699999999995 16.259,1.58699999999999 C16.259,1.58699999999999 16.259,1.58699999999999 16.259,1.58600000000001 C16.181,1.55499999999995 16.1020000000001,1.52499999999998 16.0229999999999,1.495 C16.0170000000001,1.49300000000005 16.011,1.49000000000001 16.0060000000001,1.48800000000006 C15.931,1.46000000000004 15.855,1.43299999999999 15.78,1.40599999999995 C15.769,1.40300000000002 15.759,1.399 15.749,1.39599999999996 C15.6769999999999,1.37099999999998 15.604,1.346 15.5309999999999,1.32299999999998 C15.5170000000001,1.31799999999998 15.5029999999999,1.31399999999996 15.489,1.30899999999997 C15.4190000000001,1.28700000000003 15.3489999999999,1.26499999999999 15.279,1.24400000000003 C15.261,1.23900000000003 15.2429999999999,1.23299999999995 15.2260000000001,1.22799999999995 C15.1579999999999,1.20899999999995 15.0899999999999,1.18899999999996 15.0219999999999,1.17100000000005 C15.001,1.16499999999996 14.98,1.15899999999999 14.9590000000001,1.154 C14.893,1.13599999999997 14.828,1.11900000000003 14.7619999999999,1.10299999999995 C14.7380000000001,1.09699999999998 14.713,1.09100000000001 14.6880000000001,1.08500000000004 C14.625,1.06899999999996 14.5619999999999,1.05499999999995 14.499,1.04100000000005 C14.471,1.03499999999997 14.443,1.029 14.415,1.02300000000002 C14.354,1.00999999999999 14.2940000000001,0.99699999999996 14.232,0.98400000000004 C14.201,0.97799999999995 14.1700000000001,0.97299999999996 14.1389999999999,0.96699999999998 C14.0799999999999,0.95500000000004 14.0219999999999,0.94500000000005 13.963,0.93499999999995 C13.9280000000001,0.92899999999997 13.893,0.923 13.8589999999999,0.91700000000003 C13.8030000000001,0.90800000000002 13.7460000000001,0.899 13.6900000000001,0.89099999999996 C13.652,0.88499999999999 13.6130000000001,0.88 13.575,0.87400000000002 C13.5219999999999,0.86699999999996 13.4680000000001,0.86000000000001 13.414,0.85299999999995 C13.373,0.84799999999996 13.3309999999999,0.84400000000005 13.289,0.83900000000006 C13.2380000000001,0.83299999999997 13.1869999999999,0.827 13.136,0.822 C13.0899999999999,0.81799999999998 13.0440000000001,0.81399999999996 12.998,0.80999999999995 C12.95,0.80600000000004 12.903,0.80100000000004 12.855,0.798 C12.8030000000001,0.79399999999998 12.752,0.79100000000005 12.7,0.78800000000001 C12.6569999999999,0.78499999999997 12.614,0.78200000000004 12.5719999999999,0.77999999999997 C12.511,0.77700000000004 12.45,0.77499999999998 12.3900000000001,0.77300000000002 C12.355,0.77200000000005 12.3199999999999,0.76999999999998 12.2850000000001,0.76900000000001 C12.1890000000001,0.76700000000005 12.0930000000001,0.76599999999996 11.9970000000001,0.76599999999996 C11.9010000000001,0.76599999999996 11.8040000000001,0.76700000000005 11.7090000000001,0.76900000000001 C11.674,0.76999999999998 11.6389999999999,0.77200000000005 11.604,0.77300000000002 C11.5440000000001,0.77499999999998 11.4829999999999,0.77700000000004 11.423,0.77999999999997 C11.3800000000001,0.78200000000004 11.337,0.78499999999997 11.2940000000001,0.78800000000001 C11.242,0.79100000000005 11.191,0.79399999999998 11.1389999999999,0.798 C11.0909999999999,0.80100000000004 11.0440000000001,0.80600000000004 10.9960000000001,0.80999999999995 C10.95,0.81399999999996 10.904,0.81700000000001 10.8579999999999,0.822 C10.807,0.827 10.7560000000001,0.83299999999997 10.7049999999999,0.83900000000006 C10.663,0.84400000000005 10.6210000000001,0.84799999999996 10.5799999999999,0.85299999999995 C10.5260000000001,0.86000000000001 10.472,0.86699999999996 10.4179999999999,0.87400000000002 C10.3800000000001,0.88 10.3420000000001,0.88499999999999 10.3040000000001,0.89099999999996 C10.248,0.899 10.191,0.90800000000002 10.135,0.91700000000003 C10.1010000000001,0.923 10.066,0.92899999999997 10.0319999999999,0.93499999999995 C9.97199999999998,0.94500000000005 9.91399999999999,0.95500000000004 9.85500000000002,0.96699999999998 C9.82400000000007,0.97299999999996 9.79299999999989,0.97799999999995 9.76199999999994,0.98400000000004 C9.70100000000002,0.99699999999996 9.6389999999999,1.00999999999999 9.57799999999997,1.02300000000002 C9.55099999999993,1.029 9.52299999999991,1.03399999999999 9.49499999999989,1.04100000000005 C9.43200000000002,1.05499999999995 9.36799999999994,1.06899999999996 9.30500000000006,1.08500000000004 C9.28099999999995,1.09100000000001 9.25600000000009,1.09699999999998 9.23199999999997,1.10299999999995 C9.16599999999994,1.11900000000003 9.09999999999991,1.13599999999997 9.03500000000008,1.154 C9.0139999999999,1.15899999999999 8.99299999999994,1.16499999999996 8.97199999999998,1.16999999999996 C8.904,1.18899999999996 8.83600000000001,1.20899999999995 8.76800000000003,1.22799999999995 C8.75099999999998,1.23299999999995 8.73399999999992,1.23900000000003 8.71599999999989,1.24400000000003 C8.64499999999998,1.26499999999999 8.57500000000005,1.28700000000003 8.50399999999991,1.30899999999997 C8.49099999999999,1.31299999999999 8.47800000000007,1.31799999999998 8.46399999999994,1.322 C8.3900000000001,1.346 8.31700000000001,1.37099999999998 8.24399999999991,1.39599999999996 C8.2349999999999,1.399 8.22600000000011,1.40300000000002 8.21599999999989,1.40599999999995 C8.1400000000001,1.43299999999999 8.0630000000001,1.46000000000004 7.98700000000008,1.48900000000003 C7.98299999999995,1.49000000000001 7.97800000000007,1.49199999999996 7.97399999999993,1.49400000000003 C5.90200000000004,2.27199999999993 4.11500000000001,3.63300000000004 2.81500000000005,5.37899999999991 C2.76999999999998,5.44000000000005 2.72399999999993,5.50199999999995 2.68000000000006,5.56400000000008 C2.65900000000011,5.59300000000007 2.6389999999999,5.62300000000005 2.61799999999994,5.65200000000004 C2.59099999999989,5.69200000000001 2.5630000000001,5.73099999999999 2.53600000000006,5.76999999999998 C2.5150000000001,5.80199999999991 2.49299999999994,5.83400000000006 2.47199999999998,5.86599999999999 C2.44599999999991,5.90499999999997 2.42100000000005,5.94299999999998 2.39499999999998,5.98199999999997 C2.375,6.0139999999999 2.35400000000004,6.04600000000005 2.33300000000008,6.07799999999997 C2.30700000000002,6.11999999999989 2.27999999999997,6.16300000000001 2.25399999999991,6.20499999999993 C2.2360000000001,6.23399999999992 2.21800000000007,6.26299999999992 2.20000000000005,6.29199999999992 C2.15900000000011,6.3599999999999 2.11899999999991,6.42800000000011 2.07899999999995,6.49800000000005 C2.0630000000001,6.52600000000007 2.04700000000003,6.55400000000009 2.03099999999995,6.58200000000011 C2.00600000000009,6.62799999999993 1.98000000000002,6.673 1.95499999999993,6.71800000000007 C1.9369999999999,6.75099999999998 1.92000000000007,6.7829999999999 1.90200000000004,6.81600000000003 C1.88000000000011,6.85899999999992 1.85699999999997,6.90100000000007 1.83500000000004,6.94299999999998 C1.81799999999998,6.97700000000009 1.80099999999993,7.00999999999999 1.78400000000011,7.04299999999989 C1.76099999999997,7.08799999999997 1.73900000000003,7.13400000000001 1.7170000000001,7.17900000000009 C1.702,7.21000000000004 1.68599999999992,7.24000000000001 1.67200000000003,7.27099999999996 C1.63699999999994,7.34300000000007 1.60300000000007,7.41499999999996 1.56999999999994,7.48700000000008 C1.55999999999995,7.50999999999999 1.54999999999995,7.53400000000011 1.53999999999996,7.55700000000002 C1.5150000000001,7.61200000000008 1.49000000000001,7.66799999999989 1.46599999999989,7.72499999999991 C1.45299999999997,7.75600000000009 1.44000000000005,7.78800000000001 1.42699999999991,7.81999999999994 C1.40699999999993,7.86699999999996 1.38699999999994,7.91499999999996 1.36799999999994,7.96199999999999 C1.35500000000002,7.99600000000009 1.3420000000001,8.029 1.32899999999995,8.0619999999999 C1.30999999999995,8.1110000000001 1.29099999999994,8.16000000000008 1.27299999999991,8.20900000000006 C1.26099999999997,8.24000000000001 1.25,8.27199999999993 1.23800000000006,8.30300000000011 C1.21499999999992,8.36599999999999 1.19299999999998,8.42900000000009 1.17100000000005,8.49299999999994 C1.16499999999996,8.50999999999999 1.15900000000011,8.52700000000004 1.15300000000002,8.54500000000007 C1.12699999999995,8.62400000000002 1.10100000000011,8.70299999999997 1.07600000000002,8.7829999999999 C1.06700000000001,8.8119999999999 1.05799999999999,8.8420000000001 1.04899999999998,8.87100000000009 C1.0329999999999,8.92399999999998 1.01700000000005,8.97800000000007 1.00099999999998,9.03199999999993 C0.99199999999996,9.06500000000005 0.98299999999995,9.09699999999998 0.97399999999993,9.13000000000011 C0.95900000000006,9.18299999999999 0.94499999999994,9.2360000000001 0.93100000000004,9.28800000000001 C0.92200000000003,9.31999999999994 0.91399999999999,9.35100000000011 0.90599999999995,9.38300000000004 C0.8900000000001,9.44499999999994 0.875,9.50700000000006 0.8610000000001,9.56899999999996 C0.85500000000002,9.59099999999989 0.84999999999991,9.61300000000006 0.84500000000003,9.63599999999997 C0.82500000000005,9.71900000000005 0.80700000000002,9.80300000000011 0.78999999999996,9.88699999999994 C0.78500000000008,9.91200000000003 0.77999999999997,9.9369999999999 0.77500000000009,9.96100000000001 C0.76299999999992,10.0229999999999 0.75099999999998,10.0840000000001 0.74000000000001,10.146 C0.73399999999992,10.1769999999999 0.72900000000004,10.2090000000001 0.72299999999996,10.24 C0.71299999999997,10.297 0.70399999999995,10.354 0.69499999999994,10.4110000000001 C0.69000000000005,10.442 0.68499999999995,10.4739999999999 0.68000000000006,10.5060000000001 C0.67100000000005,10.568 0.66200000000003,10.6300000000001 0.654,10.692 C0.65100000000007,10.7170000000001 0.64699999999993,10.7429999999999 0.64400000000001,10.769 C0.63300000000004,10.856 0.62300000000005,10.944 0.61400000000003,11.0309999999999 C0.61200000000008,11.048 0.6110000000001,11.0650000000001 0.60899999999992,11.0809999999999 C0.60200000000009,11.153 0.596,11.2249999999999 0.58999999999992,11.298 C0.58799999999997,11.328 0.58600000000001,11.3579999999999 0.58300000000008,11.3879999999999 C0.57899999999995,11.4480000000001 0.57500000000005,11.508 0.57199999999989,11.569 C0.56999999999994,11.6010000000001 0.56899999999996,11.633 0.56700000000001,11.665 C0.56400000000008,11.7280000000001 0.5619999999999,11.79 0.55999999999995,11.8530000000001 C0.55899999999997,11.8810000000001 0.55799999999999,11.9090000000001 0.55700000000002,11.9369999999999 C0.55500000000006,12.028 0.55400000000009,12.1179999999999 0.55400000000009,12.2090000000001 C0.55400000000009,12.29 0.55500000000006,12.3710000000001 0.55700000000002,12.451 C0.55799999999999,12.4880000000001 0.55899999999997,12.5239999999999 0.55999999999995,12.5599999999999 C0.56099999999992,12.5920000000001 0.5619999999999,12.6220000000001 0.5630000000001,12.654 C0.64200000000005,14.71 1.26299999999992,16.626 2.28800000000001,18.2650000000001 C2.28800000000001,18.2660000000001 2.28800000000001,18.2660000000001 2.28800000000001,18.2660000000001 C2.48199999999997,18.577 2.69100000000003,18.877 2.91300000000001,19.1669999999999 C2.91399999999999,19.1679999999999 2.91499999999996,19.1700000000001 2.91599999999994,19.171 C3.13599999999997,19.4580000000001 3.36899999999991,19.7329999999999 3.61500000000001,19.9970000000001 C3.61999999999989,20.0039999999999 3.62599999999998,20.01 3.63200000000006,20.0160000000001 C3.67800000000011,20.066 3.72499999999991,20.115 3.77299999999991,20.164 C3.77500000000009,20.1659999999999 3.77700000000004,20.1679999999999 3.779,20.1700000000001 C3.92599999999993,20.3219999999999 4.07799999999997,20.471 4.23399999999992,20.615 C4.23900000000003,20.6189999999999 4.24399999999991,20.624 4.24900000000002,20.6289999999999 C4.29500000000007,20.671 4.3420000000001,20.713 4.38799999999992,20.7550000000001 C4.40100000000007,20.7660000000001 4.41399999999999,20.778 4.42699999999991,20.789 C4.47299999999996,20.829 4.51900000000001,20.8699999999999 4.56500000000005,20.9090000000001 C4.57600000000002,20.9190000000001 4.58699999999999,20.9280000000001 4.59799999999996,20.9369999999999 C4.74600000000009,21.0630000000001 4.89699999999993,21.184 5.05199999999991,21.3030000000001 C5.06700000000001,21.3150000000001 5.08300000000008,21.327 5.09799999999996,21.338 C5.14200000000005,21.3720000000001 5.1869999999999,21.405 5.23099999999999,21.4369999999999 C5.25199999999995,21.453 5.27299999999991,21.4680000000001 5.29500000000007,21.4829999999999 C5.33799999999997,21.5150000000001 5.38200000000006,21.547 5.42599999999993,21.578 C5.44699999999989,21.5920000000001 5.46800000000007,21.606 5.48900000000003,21.6210000000001 C5.63599999999997,21.723 5.78500000000008,21.8209999999999 5.93599999999992,21.9159999999999 C5.96199999999999,21.932 5.98700000000008,21.9480000000001 6.01299999999992,21.963 C6.05500000000006,21.99 6.09699999999998,22.0150000000001 6.1400000000001,22.04 C6.16799999999989,22.057 6.19699999999989,22.0740000000001 6.22600000000011,22.0909999999999 C6.26800000000003,22.116 6.30999999999995,22.1400000000001 6.35200000000009,22.164 C6.38100000000009,22.181 6.41100000000006,22.1969999999999 6.44100000000003,22.2139999999999 C6.58799999999997,22.2950000000001 6.7360000000001,22.374 6.88699999999994,22.4490000000001 C6.92000000000007,22.4659999999999 6.95299999999997,22.482 6.9860000000001,22.498 C7.02700000000004,22.519 7.06899999999996,22.539 7.1099999999999,22.558 C7.14400000000001,22.5740000000001 7.17900000000009,22.5899999999999 7.21299999999997,22.606 C7.25399999999991,22.625 7.29600000000005,22.644 7.33699999999999,22.663 C7.37300000000005,22.6780000000001 7.4079999999999,22.693 7.44299999999998,22.7090000000001 C7.4849999999999,22.7270000000001 7.52600000000007,22.7449999999999 7.56700000000001,22.7619999999999 C7.56700000000001,22.7619999999999 7.56700000000001,22.7619999999999 7.56799999999998,22.7619999999999 C8.93000000000006,23.335 10.4269999999999,23.652 11.9970000000001,23.652 C13.546,23.652 15.0229999999999,23.3430000000001 16.3710000000001,22.7850000000001 C16.3710000000001,22.7850000000001 16.3710000000001,22.7850000000001 16.3710000000001,22.7850000000001 C16.441,22.7570000000001 16.51,22.7270000000001 16.578,22.6969999999999 C16.585,22.694 16.5920000000001,22.691 16.5989999999999,22.6880000000001 C16.6659999999999,22.6579999999999 16.7329999999999,22.6279999999999 16.8,22.597 C16.8050000000001,22.595 16.8109999999999,22.5920000000001 16.817,22.5889999999999 C17.1669999999999,22.4269999999999 17.5070000000001,22.2470000000001 17.837,22.0509999999999 C17.8430000000001,22.047 17.8499999999999,22.0429999999999 17.857,22.039 C17.9159999999999,22.0029999999999 17.9749999999999,21.9680000000001 18.0329999999999,21.931 C18.0450000000001,21.924 18.057,21.9159999999999 18.069,21.9090000000001 C18.126,21.873 18.182,21.837 18.2380000000001,21.8009999999999 C18.25,21.7929999999999 18.261,21.7850000000001 18.2729999999999,21.778 C18.3309999999999,21.74 18.3879999999999,21.702 18.4449999999999,21.663 C18.4469999999999,21.662 18.4490000000001,21.6600000000001 18.452,21.6579999999999 C18.636,21.5319999999999 18.816,21.4010000000001 18.992,21.2650000000001 C19.001,21.258 19.011,21.251 19.02,21.2439999999999 C19.067,21.2059999999999 19.114,21.1690000000001 19.1610000000001,21.1310000000001 C19.1800000000001,21.116 19.1990000000001,21.1010000000001 19.2180000000001,21.085 C19.2619999999999,21.05 19.3050000000001,21.0139999999999 19.348,20.9780000000001 C19.3689999999999,20.9590000000001 19.3910000000001,20.941 19.413,20.923 C19.454,20.8879999999999 19.4949999999999,20.8530000000001 19.5360000000001,20.817 C19.558,20.797 19.5809999999999,20.777 19.6030000000001,20.7570000000001 C19.643,20.721 19.683,20.6859999999999 19.722,20.6500000000001 C19.7429999999999,20.6310000000001 19.7639999999999,20.6110000000001 19.7840000000001,20.5920000000001 C19.8699999999999,20.5129999999999 19.954,20.433 20.0360000000001,20.3510000000001 C20.048,20.3399999999999 20.0599999999999,20.329 20.0709999999999,20.317 C20.104,20.2840000000001 20.1369999999999,20.251 20.1690000000001,20.2180000000001 C20.1969999999999,20.1900000000001 20.2239999999999,20.162 20.251,20.134 C20.2809999999999,20.1020000000001 20.3119999999999,20.0699999999999 20.3420000000001,20.037 C20.3699999999999,20.0070000000001 20.3989999999999,19.9770000000001 20.4269999999999,19.9459999999999 C20.4559999999999,19.915 20.4839999999999,19.883 20.5129999999999,19.8520000000001 C20.5419999999999,19.819 20.5709999999999,19.7860000000001 20.5999999999999,19.7529999999999 C20.627,19.723 20.654,19.692 20.6800000000001,19.6610000000001 C20.711,19.625 20.742,19.5889999999999 20.7719999999999,19.5530000000001 C20.796,19.5239999999999 20.8199999999999,19.4949999999999 20.8440000000001,19.4659999999999 C20.8820000000001,19.4200000000001 20.9200000000001,19.373 20.9570000000001,19.326 C20.972,19.307 20.9880000000001,19.287 21.0039999999999,19.268 C21.0550000000001,19.202 21.106,19.136 21.1559999999999,19.069 C21.174,19.0450000000001 21.192,19.02 21.21,18.9960000000001 C21.2429999999999,18.951 21.2760000000001,18.9059999999999 21.308,18.8610000000001 C21.328,18.8330000000001 21.348,18.8050000000001 21.367,18.777 C21.3979999999999,18.7349999999999 21.4269999999999,18.691 21.4570000000001,18.6479999999999 C21.4760000000001,18.6199999999999 21.4960000000001,18.5909999999999 21.5150000000001,18.5619999999999 C21.5450000000001,18.518 21.5740000000001,18.4739999999999 21.6030000000001,18.4290000000001 C21.6210000000001,18.4010000000001 21.6389999999999,18.373 21.6569999999999,18.346 C21.6880000000001,18.297 21.7180000000001,18.248 21.748,18.1990000000001 C21.7629999999999,18.174 21.778,18.1500000000001 21.7929999999999,18.126 C21.837,18.0540000000001 21.8800000000001,17.981 21.922,17.9079999999999 C21.923,17.9069999999999 21.924,17.9059999999999 21.924,17.904 C21.924,17.904 21.924,17.904 21.924,17.904 C22.819,16.348 23.3579999999999,14.5599999999999 23.431,12.654 C23.432,12.623 23.433,12.5920000000001 23.434,12.5599999999999 C23.4349999999999,12.5239999999999 23.4359999999999,12.4880000000001 23.4369999999999,12.452 C23.4390000000001,12.3710000000001 23.4400000000001,12.29 23.4400000000001,12.2090000000001 C23.4400000000001,12.1179999999999 23.4390000000001,12.028 23.4369999999999,11.9369999999999 ZM12.4639999999999,4.34400000000005 C12.4639999999999,4.34400000000005 15.3510000000001,2.24600000000009 15.3510000000001,2.24600000000009 C15.5989999999999,2.32999999999993 15.845,2.42200000000003 16.087,2.52500000000009 C17.3389999999999,3.05400000000009 18.463,3.8119999999999 19.4280000000001,4.77800000000002 C19.9549999999999,5.30400000000009 20.4190000000001,5.87899999999991 20.819,6.49499999999989 C20.819,6.49499999999989 19.8109999999999,9.67699999999991 19.8109999999999,9.67699999999991 C19.8109999999999,9.67699999999991 16.808,10.663 16.808,10.663 C16.808,10.663 12.4639999999999,7.50700000000006 12.4639999999999,7.50700000000006 C12.4639999999999,7.50700000000006 12.4639999999999,4.34400000000005 12.4639999999999,4.34400000000005 ZM4.56600000000003,4.77800000000002 C5.53099999999995,3.8119999999999 6.65499999999997,3.05400000000009 7.90699999999993,2.52500000000009 C8.14899999999989,2.42200000000003 8.39499999999998,2.32999999999993 8.64300000000003,2.24600000000009 C8.64300000000003,2.24600000000009 11.53,4.34400000000005 11.53,4.34400000000005 C11.53,4.34400000000005 11.53,7.50700000000006 11.53,7.50700000000006 C11.53,7.50700000000006 7.16300000000001,10.6800000000001 7.16300000000001,10.6800000000001 C7.16300000000001,10.6800000000001 4.1880000000001,9.69100000000003 4.1880000000001,9.69100000000003 C4.1880000000001,9.69100000000003 3.17499999999995,6.49499999999989 3.17499999999995,6.49499999999989 C3.57500000000005,5.87899999999991 4.03899999999999,5.30400000000009 4.56600000000003,4.77800000000002 ZM6.40300000000002,18.9169999999999 C6.40300000000002,18.9169999999999 3.55199999999991,18.4659999999999 3.55199999999991,18.4659999999999 C3.05500000000006,17.797 2.64100000000008,17.0719999999999 2.31400000000008,16.299 C1.77800000000002,15.0319999999999 1.50099999999998,13.6880000000001 1.48900000000003,12.3019999999999 C1.48900000000003,12.3019999999999 3.89799999999991,10.579 3.89799999999991,10.579 C3.89799999999991,10.579 6.875,11.568 6.875,11.568 C6.875,11.568 8.56099999999992,16.759 8.56099999999992,16.759 C8.56099999999992,16.759 6.40300000000002,18.9169999999999 6.40300000000002,18.9169999999999 ZM16.5450000000001,21.6849999999999 C16.395,21.758 16.242,21.827 16.087,21.8920000000001 C14.7919999999999,22.4400000000001 13.4159999999999,22.7180000000001 11.9970000000001,22.7180000000001 C10.578,22.7180000000001 9.202,22.4400000000001 7.90699999999993,21.8920000000001 C7.73299999999995,21.819 7.5619999999999,21.74 7.39300000000003,21.6579999999999 C7.39300000000003,21.6579999999999 7.0630000000001,19.578 7.0630000000001,19.578 C7.0630000000001,19.578 9.39100000000008,17.25 9.39100000000008,17.25 C9.39100000000008,17.25 14.9300000000001,17.25 14.9300000000001,17.25 C14.9300000000001,17.25 16.931,19.251 16.931,19.251 C16.931,19.251 16.5450000000001,21.6849999999999 16.5450000000001,21.6849999999999 ZM21.6800000000001,16.299 C21.412,16.932 21.086,17.5329999999999 20.703,18.097 C20.703,18.097 17.5909999999999,18.5899999999999 17.5909999999999,18.5899999999999 C17.5909999999999,18.5899999999999 15.5129999999999,16.5119999999999 15.5129999999999,16.5119999999999 C15.5129999999999,16.5119999999999 17.1279999999999,11.54 17.1279999999999,11.54 C17.1279999999999,11.54 20.0830000000001,10.5699999999999 20.0830000000001,10.5699999999999 C20.0830000000001,10.5699999999999 22.5050000000001,12.3019999999999 22.5050000000001,12.3019999999999 C22.4929999999999,13.6880000000001 22.2159999999999,15.0319999999999 21.6800000000001,16.299 Z "/>
</svg>
