<?xml version="1.0" encoding="utf-8"?>
<!DOCTYPE svg PUBLIC "-//W3C//DTD SVG 1.1//EN" "http://www.w3.org/Graphics/SVG/1.1/DTD/svg11.dtd">
<svg version="1.1" baseProfile="full"
 xmlns="http://www.w3.org/2000/svg"
 xmlns:xlink="http://www.w3.org/1999/xlink"
 xmlns:ev="http://www.w3.org/2001/xml-events" 
  height="13px" 
  width="13px" 
>
<path fill="rgb( 177, 177, 177 )"
 d="M6.28099999999995,0.25 C2.82899999999995,0.25 0.03099999999995,3.048 0.03099999999995,6.5 C0.03099999999995,9.952 2.82899999999995,12.75 6.28099999999995,12.75 C9.73299999999995,12.75 12.5309999999999,9.952 12.5309999999999,6.5 C12.5309999999999,3.048 9.73299999999995,0.25 6.28099999999995,0.25 ZM9.27199999999993,7.00199999999995 C9.27199999999993,7.00199999999995 5.5440000000001,9.56600000000003 5.5440000000001,9.56600000000003 C5.44000000000005,9.63699999999994 5.31899999999996,9.67399999999998 5.19800000000009,9.67399999999998 C5.10100000000011,9.67399999999998 5.00399999999991,9.65099999999995 4.91499999999996,9.60400000000004 C4.71499999999992,9.49800000000005 4.58899999999994,9.28999999999996 4.58899999999994,9.06500000000005 C4.58899999999994,9.06500000000005 4.58899999999994,3.93499999999995 4.58899999999994,3.93499999999995 C4.58899999999994,3.70899999999995 4.71499999999992,3.50099999999998 4.91499999999996,3.39599999999996 C5.11500000000001,3.29100000000005 5.35699999999997,3.30499999999995 5.5440000000001,3.43299999999999 C5.5440000000001,3.43299999999999 9.27199999999993,5.99800000000005 9.27199999999993,5.99800000000005 C9.4369999999999,6.11199999999997 9.53600000000006,6.29899999999998 9.53600000000006,6.5 C9.53600000000006,6.70000000000005 9.4369999999999,6.88800000000003 9.27199999999993,7.00199999999995 Z "/>
</svg>
