<?xml version="1.0" encoding="utf-8"?>
<!DOCTYPE svg PUBLIC "-//W3C//DTD SVG 1.1//EN" "http://www.w3.org/Graphics/SVG/1.1/DTD/svg11.dtd">
<svg version="1.1" baseProfile="full"
 xmlns="http://www.w3.org/2000/svg"
 xmlns:xlink="http://www.w3.org/1999/xlink"
 xmlns:ev="http://www.w3.org/2001/xml-events" 
  height="21px" 
  width="22px" 
>
<path fill="rgb( 255, 255, 255 )"
 d="M20.037,20.838 C20.037,20.838 1.65300000000002,20.838 1.65300000000002,20.838 C0.90899999999999,20.838 0.30399999999997,20.2329999999999 0.30399999999997,19.49 C0.30399999999997,19.49 0.30399999999997,3.20000000000005 0.30399999999997,3.20000000000005 C0.30399999999997,2.45699999999999 0.90899999999999,1.85199999999998 1.65300000000002,1.85199999999998 C1.65300000000002,1.85199999999998 3.95100000000002,1.85199999999998 3.95100000000002,1.85199999999998 C3.95100000000002,1.85199999999998 3.95100000000002,4.13999999999999 3.95100000000002,4.13999999999999 C3.95100000000002,4.96900000000005 4.62599999999998,5.64400000000001 5.45600000000002,5.64400000000001 C5.45600000000002,5.64400000000001 5.75799999999998,5.64400000000001 5.75799999999998,5.64400000000001 C6.58699999999999,5.64400000000001 7.262,4.96900000000005 7.262,4.13999999999999 C7.262,4.13999999999999 7.262,1.85199999999998 7.262,1.85199999999998 C7.262,1.85199999999998 14.597,1.85199999999998 14.597,1.85199999999998 C14.597,1.85199999999998 14.597,4.12 14.597,4.12 C14.597,4.94899999999996 15.271,5.62300000000005 16.101,5.62300000000005 C16.101,5.62300000000005 16.403,5.62300000000005 16.403,5.62300000000005 C17.232,5.62300000000005 17.907,5.16600000000005 17.907,4.33699999999999 C17.907,4.33699999999999 17.907,1.85199999999998 17.907,1.85199999999998 C17.907,1.85199999999998 20.037,1.85199999999998 20.037,1.85199999999998 C20.781,1.85199999999998 21.386,2.45699999999999 21.386,3.20000000000005 C21.386,3.20000000000005 21.386,19.49 21.386,19.49 C21.386,20.2329999999999 20.781,20.838 20.037,20.838 ZM20.037,7.18799999999999 C20.037,7.18799999999999 1.65300000000002,7.18799999999999 1.65300000000002,7.18799999999999 C1.65300000000002,7.18799999999999 1.65300000000002,19.49 1.65300000000002,19.49 C1.65300000000002,19.49 20.037,19.49 20.037,19.49 C20.038,19.49 20.038,19.49 20.038,19.49 C20.038,19.49 20.037,7.18799999999999 20.037,7.18799999999999 ZM17.918,18.177 C17.918,18.177 15.496,18.177 15.496,18.177 C15.399,18.177 15.322,18.1 15.322,18.003 C15.322,18.003 15.322,15.908 15.322,15.908 C15.322,15.811 15.399,15.734 15.496,15.734 C15.496,15.734 17.918,15.734 17.918,15.734 C18.014,15.734 18.092,15.811 18.092,15.908 C18.092,15.908 18.092,18.003 18.092,18.003 C18.092,18.1 18.014,18.177 17.918,18.177 ZM17.918,14.746 C17.918,14.746 15.496,14.746 15.496,14.746 C15.399,14.746 15.322,14.668 15.322,14.572 C15.322,14.572 15.322,12.476 15.322,12.476 C15.322,12.38 15.399,12.302 15.496,12.302 C15.496,12.302 17.918,12.302 17.918,12.302 C18.014,12.302 18.092,12.38 18.092,12.476 C18.092,12.476 18.092,14.572 18.092,14.572 C18.092,14.668 18.014,14.746 17.918,14.746 ZM17.918,11.314 C17.918,11.314 15.495,11.314 15.495,11.314 C15.399,11.314 15.322,11.237 15.322,11.141 C15.322,11.141 15.322,9.04499999999996 15.322,9.04499999999996 C15.322,8.94899999999996 15.399,8.87099999999998 15.495,8.87099999999998 C15.495,8.87099999999998 17.918,8.87099999999998 17.918,8.87099999999998 C18.014,8.87099999999998 18.092,8.94899999999996 18.092,9.04499999999996 C18.092,9.04499999999996 18.092,11.141 18.092,11.141 C18.092,11.237 18.014,11.314 17.918,11.314 ZM13.965,18.177 C13.965,18.177 11.542,18.177 11.542,18.177 C11.446,18.177 11.368,18.1 11.368,18.003 C11.368,18.003 11.368,15.908 11.368,15.908 C11.368,15.811 11.446,15.734 11.542,15.734 C11.542,15.734 13.965,15.734 13.965,15.734 C14.061,15.734 14.138,15.811 14.138,15.908 C14.138,15.908 14.138,18.003 14.138,18.003 C14.138,18.1 14.061,18.177 13.965,18.177 ZM13.964,14.746 C13.964,14.746 11.542,14.746 11.542,14.746 C11.446,14.746 11.368,14.668 11.368,14.572 C11.368,14.572 11.368,12.476 11.368,12.476 C11.368,12.38 11.446,12.302 11.542,12.302 C11.542,12.302 13.964,12.302 13.964,12.302 C14.061,12.302 14.138,12.38 14.138,12.476 C14.138,12.476 14.138,14.572 14.138,14.572 C14.138,14.668 14.061,14.746 13.964,14.746 ZM13.964,11.314 C13.964,11.314 11.542,11.314 11.542,11.314 C11.446,11.314 11.368,11.237 11.368,11.141 C11.368,11.141 11.368,9.04499999999996 11.368,9.04499999999996 C11.368,8.94899999999996 11.446,8.87099999999998 11.542,8.87099999999998 C11.542,8.87099999999998 13.964,8.87099999999998 13.964,8.87099999999998 C14.06,8.87099999999998 14.138,8.94899999999996 14.138,9.04499999999996 C14.138,9.04499999999996 14.138,11.141 14.138,11.141 C14.138,11.237 14.06,11.314 13.964,11.314 ZM10.011,18.177 C10.011,18.177 7.58800000000002,18.177 7.58800000000002,18.177 C7.49200000000002,18.177 7.41399999999999,18.1 7.41399999999999,18.003 C7.41399999999999,18.003 7.41399999999999,15.908 7.41399999999999,15.908 C7.41399999999999,15.811 7.49200000000002,15.734 7.58800000000002,15.734 C7.58800000000002,15.734 10.011,15.734 10.011,15.734 C10.107,15.734 10.185,15.811 10.185,15.908 C10.185,15.908 10.185,18.003 10.185,18.003 C10.185,18.1 10.107,18.177 10.011,18.177 ZM10.011,14.746 C10.011,14.746 7.58800000000002,14.746 7.58800000000002,14.746 C7.49200000000002,14.746 7.41399999999999,14.668 7.41399999999999,14.572 C7.41399999999999,14.572 7.41399999999999,12.476 7.41399999999999,12.476 C7.41399999999999,12.38 7.49200000000002,12.302 7.58800000000002,12.302 C7.58800000000002,12.302 10.011,12.302 10.011,12.302 C10.107,12.302 10.185,12.38 10.185,12.476 C10.185,12.476 10.185,14.572 10.185,14.572 C10.185,14.668 10.107,14.746 10.011,14.746 ZM6.05700000000002,18.177 C6.05700000000002,18.177 3.63499999999999,18.177 3.63499999999999,18.177 C3.53899999999999,18.177 3.46100000000001,18.1 3.46100000000001,18.003 C3.46100000000001,18.003 3.46100000000001,15.908 3.46100000000001,15.908 C3.46100000000001,15.811 3.53899999999999,15.734 3.63499999999999,15.734 C3.63499999999999,15.734 6.05700000000002,15.734 6.05700000000002,15.734 C6.15300000000002,15.734 6.23099999999999,15.811 6.23099999999999,15.908 C6.23099999999999,15.908 6.23099999999999,18.003 6.23099999999999,18.003 C6.23099999999999,18.1 6.15300000000002,18.177 6.05700000000002,18.177 ZM6.05700000000002,14.746 C6.05700000000002,14.746 3.63499999999999,14.746 3.63499999999999,14.746 C3.53899999999999,14.746 3.46100000000001,14.668 3.46100000000001,14.572 C3.46100000000001,14.572 3.46100000000001,12.476 3.46100000000001,12.476 C3.46100000000001,12.38 3.53899999999999,12.302 3.63499999999999,12.302 C3.63499999999999,12.302 6.05700000000002,12.302 6.05700000000002,12.302 C6.15300000000002,12.302 6.23099999999999,12.38 6.23099999999999,12.476 C6.23099999999999,12.476 6.23099999999999,14.572 6.23099999999999,14.572 C6.23099999999999,14.668 6.15300000000002,14.746 6.05700000000002,14.746 ZM16.403,4.94899999999996 C16.403,4.94899999999996 16.101,4.94899999999996 16.101,4.94899999999996 C15.643,4.94899999999996 15.271,4.577 15.271,4.12 C15.271,4.12 15.271,1.63499999999999 15.271,1.63499999999999 C15.271,1.63499999999999 15.271,0.976 15.271,0.976 C15.271,0.51800000000003 15.643,0.14599999999996 16.101,0.14599999999996 C16.101,0.14599999999996 16.403,0.14599999999996 16.403,0.14599999999996 C16.861,0.14599999999996 17.232,0.51800000000003 17.232,0.976 C17.232,0.976 17.232,1.63499999999999 17.232,1.63499999999999 C17.232,1.63499999999999 17.232,4.12 17.232,4.12 C17.232,4.577 16.861,4.94899999999996 16.403,4.94899999999996 ZM5.75799999999998,4.97000000000003 C5.75799999999998,4.97000000000003 5.45600000000002,4.97000000000003 5.45600000000002,4.97000000000003 C4.99799999999999,4.97000000000003 4.62599999999998,4.59799999999996 4.62599999999998,4.13999999999999 C4.62599999999998,4.13999999999999 4.62599999999998,1.85199999999998 4.62599999999998,1.85199999999998 C4.62599999999998,1.85199999999998 4.62599999999998,0.99599999999998 4.62599999999998,0.99599999999998 C4.62599999999998,0.53800000000001 4.99799999999999,0.16700000000003 5.45600000000002,0.16700000000003 C5.45600000000002,0.16700000000003 5.75799999999998,0.16700000000003 5.75799999999998,0.16700000000003 C6.21600000000001,0.16700000000003 6.58699999999999,0.53800000000001 6.58699999999999,0.99599999999998 C6.58699999999999,0.99599999999998 6.58699999999999,1.85199999999998 6.58699999999999,1.85199999999998 C6.58699999999999,1.85199999999998 6.58699999999999,4.13999999999999 6.58699999999999,4.13999999999999 C6.58699999999999,4.59799999999996 6.21600000000001,4.97000000000003 5.75799999999998,4.97000000000003 Z "/>
</svg>
