<?xml version="1.0" encoding="utf-8"?>
<!-- Generator: Adobe Illustrator 18.0.0, SVG Export Plug-In . SVG Version: 6.00 Build 0)  -->
<!DOCTYPE svg PUBLIC "-//W3C//DTD SVG 1.1//EN" "http://www.w3.org/Graphics/SVG/1.1/DTD/svg11.dtd">
<svg version="1.1" id="Capa_1" xmlns="http://www.w3.org/2000/svg" xmlns:xlink="http://www.w3.org/1999/xlink" x="0px" y="0px"
	 viewBox="82.1 0 280.4 444.5" enable-background="new 82.1 0 280.4 444.5" xml:space="preserve">
<g>
	<path d="M213.1,222.4L351.9,83.7c7-7,10.6-15.7,10.6-25.8c0-10.2-3.5-18.8-10.6-25.8l-21.4-21.4c-7-7-15.7-10.6-25.8-10.6
		s-18.8,3.5-25.8,10.6L92.6,196.4c-7,7-10.6,15.7-10.6,25.8s3.5,18.8,10.6,25.8L278.8,434c7,7,15.7,10.6,25.8,10.6
		s18.8-3.5,25.8-10.6l21.4-21.4c7-7,10.6-15.6,10.6-25.7c0-10.1-3.5-18.7-10.6-26L213.1,222.4z"/>
</g>
</svg>
