<?xml version="1.0" encoding="utf-8"?>
<!DOCTYPE svg PUBLIC "-//W3C//DTD SVG 1.1//EN" "http://www.w3.org/Graphics/SVG/1.1/DTD/svg11.dtd">
<svg version="1.1" baseProfile="full"
 xmlns="http://www.w3.org/2000/svg"
 xmlns:xlink="http://www.w3.org/1999/xlink"
 xmlns:ev="http://www.w3.org/2001/xml-events" 
  height="16px" 
  width="16px" 
>
<path fill="rgb( 255, 255, 255 )"
 d="M14.592,11.101 C14.222,11.974 13.693,12.759 13.02,13.432 C12.346,14.105 11.563,14.634 10.689,15.004 C9.78599999999994,15.386 8.82399999999996,15.58 7.83500000000004,15.58 C6.846,15.58 5.88599999999997,15.386 4.98099999999999,15.004 C4.10799999999995,14.634 3.32299999999998,14.105 2.64999999999998,13.432 C1.97699999999998,12.759 1.44799999999998,11.976 1.07799999999997,11.101 C0.69600000000003,10.198 0.50199999999995,9.23699999999997 0.50199999999995,8.24699999999996 C0.50199999999995,7.25800000000004 0.69600000000003,6.29600000000005 1.07799999999997,5.39300000000003 C1.44799999999998,4.51900000000001 1.97699999999998,3.73400000000004 2.64999999999998,3.06200000000001 C3.32299999999998,2.38900000000001 4.10799999999995,1.86000000000001 4.98099999999999,1.49000000000001 C5.88400000000001,1.10799999999995 6.84500000000003,0.91399999999999 7.83500000000004,0.91399999999999 C8.82500000000005,0.91399999999999 9.78599999999994,1.10799999999995 10.689,1.49000000000001 C11.563,1.86000000000001 12.348,2.38900000000001 13.02,3.06200000000001 C13.693,3.73599999999999 14.222,4.51900000000001 14.592,5.39300000000003 C14.974,6.29600000000005 15.169,7.25699999999995 15.169,8.24699999999996 C15.169,9.23599999999999 14.974,10.196 14.592,11.101 ZM13.985,8.22500000000002 C13.985,8.22500000000002 13.711,8.50300000000004 13.711,8.50300000000004 C13.529,8.68600000000004 13.237,8.69100000000003 13.049,8.51499999999999 C13.049,8.51499999999999 11.55,7.11000000000001 11.55,7.11000000000001 C11.441,7.00699999999995 11.386,6.85900000000004 11.403,6.71000000000004 C11.403,6.71000000000004 11.6369999999999,4.66800000000001 11.6369999999999,4.66800000000001 C11.665,4.41200000000003 11.893,4.22699999999998 12.149,4.24900000000002 C12.149,4.24900000000002 12.539,4.28399999999999 12.539,4.28399999999999 C12.427,4.15099999999995 12.308,4.024 12.183,3.899 C11.529,3.245 10.754,2.75699999999995 9.90899999999999,2.45500000000004 C9.90899999999999,2.45500000000004 10.078,2.81200000000001 10.078,2.81200000000001 C10.189,3.04399999999998 10.0940000000001,3.322 9.86300000000006,3.43899999999996 C9.86300000000006,3.43899999999996 8.03099999999995,4.36900000000003 8.03099999999995,4.36900000000003 C7.89800000000002,4.43700000000001 7.74000000000001,4.43700000000001 7.60599999999999,4.37099999999998 C7.60599999999999,4.37099999999998 5.76599999999996,3.45500000000004 5.76599999999996,3.45500000000004 C5.53700000000003,3.34100000000001 5.43899999999996,3.06299999999999 5.548,2.83100000000002 C5.548,2.83100000000002 5.71400000000006,2.47299999999996 5.71400000000006,2.47299999999996 C4.88599999999997,2.77599999999995 4.12800000000004,3.25699999999995 3.48699999999997,3.899 C3.36199999999997,4.024 3.24400000000003,4.15300000000002 3.13199999999995,4.28599999999994 C3.13199999999995,4.28599999999994 3.52200000000005,4.25099999999998 3.52200000000005,4.25099999999998 C3.77800000000002,4.22900000000004 4.005,4.41399999999999 4.03300000000002,4.66999999999996 C4.03300000000002,4.66999999999996 4.26700000000005,6.71199999999999 4.26700000000005,6.71199999999999 C4.28499999999997,6.86000000000001 4.22900000000004,7.00900000000001 4.12,7.11099999999999 C4.12,7.11099999999999 2.62099999999998,8.51700000000005 2.62099999999998,8.51700000000005 C2.43299999999999,8.69299999999998 2.13999999999999,8.68700000000001 1.96000000000004,8.50400000000002 C1.96000000000004,8.50400000000002 1.68499999999995,8.226 1.68499999999995,8.226 C1.68499999999995,8.23299999999995 1.68499999999995,8.24099999999999 1.68499999999995,8.24699999999996 C1.68499999999995,9.45100000000002 2.02800000000002,10.6 2.66700000000003,11.586 C2.66700000000003,11.586 2.74900000000002,11.201 2.74900000000002,11.201 C2.803,10.949 3.04600000000005,10.787 3.29899999999998,10.8339999999999 C3.29899999999998,10.8339999999999 5.32100000000003,11.208 5.32100000000003,11.208 C5.46900000000005,11.235 5.59400000000005,11.332 5.65999999999997,11.466 C5.65999999999997,11.466 6.56500000000005,13.311 6.56500000000005,13.311 C6.67899999999997,13.5410000000001 6.58699999999999,13.821 6.36000000000001,13.939 C6.36000000000001,13.939 6.01099999999997,14.123 6.01099999999997,14.123 C6.59400000000005,14.302 7.20799999999997,14.396 7.83500000000004,14.396 C8.46199999999999,14.396 9.077,14.302 9.65899999999999,14.123 C9.65899999999999,14.123 9.30999999999995,13.939 9.30999999999995,13.939 C9.08299999999997,13.819 8.99099999999999,13.5410000000001 9.10500000000002,13.311 C9.10500000000002,13.311 10.01,11.4640000000001 10.01,11.4640000000001 C10.076,11.33 10.203,11.2329999999999 10.35,11.207 C10.35,11.207 12.371,10.832 12.371,10.832 C12.624,10.785 12.867,10.948 12.921,11.199 C12.921,11.199 13.003,11.5839999999999 13.003,11.5839999999999 C13.643,10.599 13.985,9.447 13.985,8.245 C13.985,8.23900000000003 13.985,8.23099999999999 13.985,8.22500000000002 ZM9.00999999999999,10.3819999999999 C9.00999999999999,10.3819999999999 6.65700000000004,10.3819999999999 6.65700000000004,10.3819999999999 C6.452,10.3819999999999 6.26999999999998,10.251 6.20699999999999,10.055 C6.20699999999999,10.055 5.47900000000004,7.81600000000003 5.47900000000004,7.81600000000003 C5.41499999999996,7.62199999999996 5.48500000000001,7.40700000000004 5.65099999999995,7.28700000000003 C5.65099999999995,7.28700000000003 7.55600000000004,5.90300000000002 7.55600000000004,5.90300000000002 C7.721,5.78300000000002 7.947,5.78300000000002 8.11300000000006,5.90300000000002 C8.11300000000006,5.90300000000002 10.016,7.28800000000001 10.016,7.28800000000001 C10.182,7.40800000000002 10.252,7.62199999999996 10.189,7.81700000000001 C10.189,7.81700000000001 9.46000000000004,10.055 9.46000000000004,10.055 C9.39700000000005,10.25 9.21600000000001,10.3819999999999 9.00999999999999,10.3819999999999 Z "/>
</svg>
