<?xml version="1.0" encoding="utf-8"?>
<!-- Generator: Adobe Illustrator 18.0.0, SVG Export Plug-In . SVG Version: 6.00 Build 0)  -->
<!DOCTYPE svg PUBLIC "-//W3C//DTD SVG 1.1//EN" "http://www.w3.org/Graphics/SVG/1.1/DTD/svg11.dtd">
<svg version="1.1" id="Capa_1" xmlns="http://www.w3.org/2000/svg" xmlns:xlink="http://www.w3.org/1999/xlink" x="0px" y="0px"
	 viewBox="20 5.1 174.9 214.8" enable-background="new 20 5.1 174.9 214.8" xml:space="preserve">
<g>
	<path d="M63.3,143.3c0-3.6-2.5-5.7-6.8-5.7c-1.8,0-3,0.2-3.6,0.3v11.4c0.7,0.2,1.7,0.2,2.9,0.2C60.4,149.7,63.3,147.3,63.3,143.3z"
		/>
	<path d="M90.3,137.8c-2,0-3.2,0.2-4,0.3v25.4c0.7,0.2,2,0.2,3,0.2c7.9,0.1,13.1-4.3,13.1-13.6C102.6,142,97.9,137.8,90.3,137.8z"/>
	<path d="M140.6,5.1H54.3C41.7,5.1,31.4,15.4,31.4,28v84.6h-2.2c-5.1,0-9.2,4.1-9.2,9.2v55.9c0,5.1,4.1,9.2,9.2,9.2h2.2v10.2
		c0,12.6,10.3,22.9,22.9,22.9H172c12.6,0,22.9-10.3,22.9-22.9V59.2L140.6,5.1z M44.1,131.8c2.7-0.5,6.5-0.8,11.8-0.8
		c5.4,0,9.3,1,11.8,3.1c2.5,2,4.1,5.2,4.1,9c0,3.8-1.3,7-3.6,9.2c-3,2.8-7.4,4.1-12.6,4.1c-1.2,0-2.2-0.1-3-0.2v13.9h-8.7V131.8z
		 M172,206H54.3c-4.9,0-8.9-4-8.9-8.9v-10.2h109.8c5.1,0,9.2-4.1,9.2-9.2v-55.9c0-5.1-4.1-9.2-9.2-9.2H45.4V28c0-4.9,4-8.8,8.9-8.8
		l81.1-0.1v30c0,8.8,7.1,15.9,15.9,15.9l29.3-0.1l0.3,132.3C180.9,202,176.9,206,172,206z M77.6,169.9v-38.1
		c3.2-0.5,7.4-0.8,11.8-0.8c7.4,0,12.1,1.3,15.9,4.1c4,3,6.6,7.8,6.6,14.6c0,7.4-2.7,12.5-6.4,15.7c-4.1,3.4-10.3,5-17.9,5
		C83,170.5,79.8,170.2,77.6,169.9z M140.3,147.4v7.1h-13.9v15.6h-8.8v-38.8h23.7v7.2h-14.9v8.9H140.3z"/>
</g>
</svg>
