<?xml version="1.0" encoding="utf-8"?>
<!DOCTYPE svg PUBLIC "-//W3C//DTD SVG 1.1//EN" "http://www.w3.org/Graphics/SVG/1.1/DTD/svg11.dtd">
<svg version="1.1" baseProfile="full"
 xmlns="http://www.w3.org/2000/svg"
 xmlns:xlink="http://www.w3.org/1999/xlink"
 xmlns:ev="http://www.w3.org/2001/xml-events" 
  height="14px" 
  width="14px" 
>
<path fill="rgb( 177, 177, 177 )"
 d="M6.96299999999997,0.75999999999999 C3.37300000000005,0.75999999999999 0.46299999999997,3.66999999999996 0.46299999999997,7.25999999999999 C0.46299999999997,10.85 3.37300000000005,13.76 6.96299999999997,13.76 C10.553,13.76 13.463,10.85 13.463,7.25999999999999 C13.463,3.66999999999996 10.553,0.75999999999999 6.96299999999997,0.75999999999999 ZM6.96100000000001,3.52300000000002 C7.505,3.52300000000002 7.947,3.96400000000006 7.947,4.50900000000001 C7.947,5.053 7.505,5.495 6.96100000000001,5.495 C6.41600000000005,5.495 5.97500000000002,5.053 5.97500000000002,4.50900000000001 C5.97500000000002,3.96400000000006 6.41600000000005,3.52300000000002 6.96100000000001,3.52300000000002 ZM8.654,10.923 C8.654,11.022 8.57500000000005,11.102 8.476,11.102 C8.476,11.102 7.90300000000002,11.102 7.90300000000002,11.102 C7.90300000000002,11.102 6.01900000000001,11.102 6.01900000000001,11.102 C6.01900000000001,11.102 5.44600000000003,11.102 5.44600000000003,11.102 C5.34799999999996,11.102 5.26800000000003,11.022 5.26800000000003,10.923 C5.26800000000003,10.923 5.26800000000003,10.558 5.26800000000003,10.558 C5.26800000000003,10.4589999999999 5.34799999999996,10.379 5.44600000000003,10.379 C5.44600000000003,10.379 6.01900000000001,10.379 6.01900000000001,10.379 C6.01900000000001,10.379 6.01900000000001,6.90999999999997 6.01900000000001,6.90999999999997 C6.01900000000001,6.90999999999997 5.428,6.90999999999997 5.428,6.90999999999997 C5.33000000000004,6.90999999999997 5.25,6.83100000000002 5.25,6.73199999999997 C5.25,6.73199999999997 5.25,6.36599999999999 5.25,6.36599999999999 C5.25,6.26700000000005 5.33000000000004,6.18799999999999 5.428,6.18799999999999 C5.428,6.18799999999999 6.01900000000001,6.18799999999999 6.01900000000001,6.18799999999999 C6.01900000000001,6.18799999999999 7.72500000000002,6.18799999999999 7.72500000000002,6.18799999999999 C7.72500000000002,6.18799999999999 7.73000000000002,6.18799999999999 7.73000000000002,6.18799999999999 C7.82899999999995,6.18799999999999 7.90899999999999,6.26700000000005 7.90899999999999,6.36599999999999 C7.90899999999999,6.36599999999999 7.90899999999999,10.379 7.90899999999999,10.379 C7.90899999999999,10.379 8.476,10.379 8.476,10.379 C8.57500000000005,10.379 8.654,10.4589999999999 8.654,10.558 C8.654,10.558 8.654,10.923 8.654,10.923 C8.654,10.923 8.654,10.923 8.654,10.923 Z "/>
</svg>
