<?xml version="1.0" encoding="utf-8"?>
<!-- Generator: Adobe Illustrator 19.2.1, SVG Export Plug-In . SVG Version: 6.00 Build 0)  -->
<svg version="1.1" id="Capa_1" xmlns="http://www.w3.org/2000/svg" xmlns:xlink="http://www.w3.org/1999/xlink" x="0px" y="0px"
	 viewBox="0 0 842.1 530.7" style="enable-background:new 0 0 842.1 530.7;" xml:space="preserve">
<g>
	<path d="M842.1,420.9c0-19.1-6.8-35.4-20.1-48.6L470.2,20.4C456.5,6.8,440.1,0,420.9,0c-19.5,0-35.6,6.8-48.6,20.4L20.4,372.3
		C6.8,385.4,0,401.4,0,420.9c0,19.1,6.8,35.6,20.6,49.2l39.9,40.5c14,13.4,30.5,20.1,49.2,20.1c19.1,0,35.4-6.8,48.6-20.1
		l262.5-262.5l262.7,262.5c13.2,13.4,29.5,20.1,48.6,20.1c18.7,0,35.2-6.8,49.2-20.1l40.5-40.5C835.3,456.1,841.9,439.7,842.1,420.9
		z"/>
</g>
</svg>
