<?xml version="1.0" encoding="utf-8"?>
<!-- Generator: Adobe Illustrator 18.0.0, SVG Export Plug-In . SVG Version: 6.00 Build 0)  -->
<!DOCTYPE svg PUBLIC "-//W3C//DTD SVG 1.1//EN" "http://www.w3.org/Graphics/SVG/1.1/DTD/svg11.dtd">
<svg version="1.1" id="Capa_1" xmlns="http://www.w3.org/2000/svg" xmlns:xlink="http://www.w3.org/1999/xlink" x="0px" y="0px"
	 viewBox="0 30.9 214.9 163.2" enable-background="new 0 30.9 214.9 163.2" xml:space="preserve">
<path d="M189.3,30.9H25.5C11.4,30.9,0,41.9,0,55.4v114.2c0,13.5,11.4,24.5,25.5,24.5h163.8c14.1,0,25.5-11,25.5-24.5V55.4
	C214.9,41.9,203.4,30.9,189.3,30.9z M189.3,172.5H25.5c-2.1,0-3.9-1.3-3.9-2.9V70.5l74.1,62.6c1.5,1.3,3.5,2,5.4,2l12.5,0
	c2,0,3.9-0.7,5.4-2l74.1-62.6v99.1C193.2,171.2,191.4,172.5,189.3,172.5z M107.4,113.6L35.3,52.6h144.2L107.4,113.6z"/>
</svg>
