<?xml version="1.0" encoding="utf-8"?>
<!DOCTYPE svg PUBLIC "-//W3C//DTD SVG 1.1//EN" "http://www.w3.org/Graphics/SVG/1.1/DTD/svg11.dtd">
<svg version="1.1" baseProfile="full"
 xmlns="http://www.w3.org/2000/svg"
 xmlns:xlink="http://www.w3.org/1999/xlink"
 xmlns:ev="http://www.w3.org/2001/xml-events" 
  height="11px" 
  width="11px" 
>
<path fill="rgb( 84, 195, 158 )"
 d="M9,11 C9,11 9,9 9,9 C9,9 11,9 11,9 C11,9 11,11 11,11 C11,11 9,11 9,11 ZM9,6 C9,6 11,6 11,6 C11,6 11,8 11,8 C11,8 9,8 9,8 C9,8 9,6 9,6 ZM9,3 C9,3 11,3 11,3 C11,3 11,5 11,5 C11,5 9,5 9,5 C9,5 9,3 9,3 ZM9,0 C9,0 11,0 11,0 C11,0 11,2 11,2 C11,2 9,2 9,2 C9,2 9,0 9,0 ZM6,9 C6,9 8,9 8,9 C8,9 8,11 8,11 C8,11 6,11 6,11 C6,11 6,9 6,9 ZM6,6 C6,6 8,6 8,6 C8,6 8,8 8,8 C8,8 6,8 6,8 C6,8 6,6 6,6 ZM6,3 C6,3 8,3 8,3 C8,3 8,5 8,5 C8,5 6,5 6,5 C6,5 6,3 6,3 ZM6,0 C6,0 8,0 8,0 C8,0 8,2 8,2 C8,2 6,2 6,2 C6,2 6,0 6,0 ZM3,9 C3,9 5,9 5,9 C5,9 5,11 5,11 C5,11 3,11 3,11 C3,11 3,9 3,9 ZM3,6 C3,6 5,6 5,6 C5,6 5,8 5,8 C5,8 3,8 3,8 C3,8 3,6 3,6 ZM3,3 C3,3 5,3 5,3 C5,3 5,5 5,5 C5,5 3,5 3,5 C3,5 3,3 3,3 ZM3,0 C3,0 5,0 5,0 C5,0 5,2 5,2 C5,2 3,2 3,2 C3,2 3,0 3,0 ZM0,9 C0,9 2,9 2,9 C2,9 2,11 2,11 C2,11 0,11 0,11 C0,11 0,9 0,9 ZM0,6 C0,6 2,6 2,6 C2,6 2,8 2,8 C2,8 0,8 0,8 C0,8 0,6 0,6 ZM0,3 C0,3 2,3 2,3 C2,3 2,5 2,5 C2,5 0,5 0,5 C0,5 0,3 0,3 ZM0,0 C0,0 2,0 2,0 C2,0 2,2 2,2 C2,2 0,2 0,2 C0,2 0,0 0,0 Z "/>
</svg>
