<?xml version="1.0" encoding="utf-8"?>
<!-- Generator: Adobe Illustrator 18.0.0, SVG Export Plug-In . SVG Version: 6.00 Build 0)  -->
<!DOCTYPE svg PUBLIC "-//W3C//DTD SVG 1.1//EN" "http://www.w3.org/Graphics/SVG/1.1/DTD/svg11.dtd">
<svg version="1.1" id="Capa_1" xmlns="http://www.w3.org/2000/svg" xmlns:xlink="http://www.w3.org/1999/xlink" x="0px" y="0px"
	 viewBox="123.3 97.4 595.3 400.5" enable-background="new 123.3 97.4 595.3 400.5" xml:space="preserve">
<g>
	<g>
		<g>
			<path fill="#030104" d="M715.7,203.7L496.8,99.1c-2.6-1.2-5.6-0.1-6.8,2.4l-47.6,99.7h25.9l35-73.3L693,218.6l-59.3,124.2
				l-33.4-15.9v65.7l20.5,9.8c2.6,1.2,5.6,0.1,6.8-2.4l90.5-189.4C719.3,208,718.2,204.9,715.7,203.7z"/>
		</g>
		<g>
			<path fill="#030104" d="M126.2,202.4L345.1,97.9c2.6-1.2,5.6-0.1,6.8,2.4l47.7,99.7h-26l-35-73.3l-189.7,90.7l59.3,124.2
				l33.4-15.9v65.7l-20.5,9.8c-2.6,1.3-5.6,0.1-6.8-2.4l-90.5-189.5C122.6,206.7,123.7,203.7,126.2,202.4z"/>
		</g>
		<g>
			<path fill="#030104" d="M579.6,218.3H271.5c-3.6,0-6.5,2.9-6.5,6.5v266.6c0,3.6,2.9,6.5,6.5,6.5h308.1c3.6,0,6.5-3,6.5-6.5V224.8
				C586.1,221.2,583.2,218.3,579.6,218.3z M458.2,422.6 M341.2,422.6h-46.5V247.8h267.1v174.8h-19.5"/>
		</g>
		<g>
			<g>
				<path d="M450.5,255.3c7.8,0,14.2,6.4,14.2,14.2c0,7.8-6.4,14.2-14.2,14.2c-7.8,0-14.2-6.4-14.2-14.2
					C436.3,261.7,442.6,255.3,450.5,255.3z"/>
				<path d="M498.9,334.8c0.8,0.3,1.6,0.4,2.5,0.4c2.9,0,5.6-1.8,6.7-4.7c4.5-12.3-2.7-30.1-3.5-32.1l-1-2.4L478.3,283
					c-1.5-0.8-3.1-0.9-4.7-0.6c-11.4-1-26.4,7.4-30.4,9.8c-0.6,0.4-1,0.6-1,0.6v0c-0.7,0.4-1.3,1-1.8,1.6l-13.7,19.1l-18.2,9
					c-3.5,1.7-5,6-3.2,9.5c1.2,2.5,3.8,4,6.4,4c1.1,0,2.1-0.2,3.1-0.7l21.4-10.6l7.1-9.9l1.2,22.8c0,0,0.1,0,0.2,0.1
					c0,0.4,0.1,0.8,0.2,1.2l2.3,8.8l-13.7,15.5l-34.2,41.3c-2.5,3-2.1,7.5,0.9,10c1.3,1.1,2.9,1.6,4.5,1.6c2,0,4.1-0.9,5.5-2.6
					l34-41.1l7.3-8.2l0.7,2.8l4,1.1c11,3,24.3,7.4,28,9.5c1.3,1.8,3.4,3,5.8,3c0.2,0,0.3,0,0.5,0c3.9-0.3,6.9-3.7,6.6-7.6
					c-0.4-5.9-5.8-8.8-20.9-13.7c-4.6-1.5-9.1-2.9-12.2-3.8l-1.1-4.1l4.8-5.4c4.6-2.9,12.9-27.3,14.5-45l10,5.2
					c1.9,5.4,4.2,14.6,2.4,19.4C493.3,329.4,495.2,333.5,498.9,334.8z"/>
				<path d="M379.6,382.4c8.3,0,15,6.7,15,15c0,8.3-6.7,15-15,15c-8.3,0-15-6.7-15-15C364.6,389.1,371.3,382.4,379.6,382.4z"/>
			</g>
		</g>
	</g>
</g>
</svg>
