<?xml version="1.0" encoding="utf-8"?>
<!DOCTYPE svg PUBLIC "-//W3C//DTD SVG 1.1//EN" "http://www.w3.org/Graphics/SVG/1.1/DTD/svg11.dtd">
<svg version="1.1" baseProfile="full"
 xmlns="http://www.w3.org/2000/svg"
 xmlns:xlink="http://www.w3.org/1999/xlink"
 xmlns:ev="http://www.w3.org/2001/xml-events" 
  height="8px" 
  width="8px" 
>
<path fill="rgb( 255, 255, 255 )"
 d="M6.64999999999998,0.05899999999997 C6.64999999999998,0.05899999999997 4.01800000000003,0.05899999999997 4.01800000000003,0.05899999999997 C4.01800000000003,0.05899999999997 3.13599999999997,0.05899999999997 3.13599999999997,0.05899999999997 C3.13599999999997,0.05899999999997 0.47799999999995,0.05899999999997 0.47799999999995,0.05899999999997 C0.25599999999997,0.05899999999997 0.06799999999998,0.25 0.06799999999998,0.48699999999997 C0.06799999999998,0.48699999999997 0.06799999999998,1.42899999999997 0.06799999999998,1.42899999999997 C0.06799999999998,1.66499999999996 0.24800000000005,1.85699999999997 0.46900000000005,1.85699999999997 C0.69000000000005,1.85699999999997 0.87,1.66499999999996 0.87,1.42899999999997 C0.87,1.42899999999997 0.87,0.91499999999996 0.87,0.91499999999996 C0.87,0.91499999999996 2.71299999999997,0.91499999999996 2.71299999999997,0.91499999999996 C2.71299999999997,0.91499999999996 2.71299999999997,7.13800000000003 2.71299999999997,7.13800000000003 C2.71299999999997,7.13800000000003 2.24099999999999,7.13800000000003 2.24099999999999,7.13800000000003 C2.01999999999998,7.13800000000003 1.84000000000003,7.32899999999995 1.84000000000003,7.56600000000003 C1.84000000000003,7.803 2.01999999999998,7.99400000000003 2.24099999999999,7.99400000000003 C2.24099999999999,7.99400000000003 4.88599999999997,7.99400000000003 4.88599999999997,7.99400000000003 C5.10799999999995,7.99400000000003 5.28700000000003,7.803 5.28700000000003,7.56600000000003 C5.28700000000003,7.32899999999995 5.10799999999995,7.13800000000003 4.88599999999997,7.13800000000003 C4.88599999999997,7.13800000000003 4.39700000000005,7.13800000000003 4.39700000000005,7.13800000000003 C4.39700000000005,7.13800000000003 4.39700000000005,0.91499999999996 4.39700000000005,0.91499999999996 C4.39700000000005,0.91499999999996 6.24000000000001,0.91499999999996 6.24000000000001,0.91499999999996 C6.24000000000001,0.91499999999996 6.24000000000001,1.42899999999997 6.24000000000001,1.42899999999997 C6.24000000000001,1.66499999999996 6.41999999999996,1.85699999999997 6.64099999999996,1.85699999999997 C6.86199999999997,1.85699999999997 7.04200000000003,1.66499999999996 7.04200000000003,1.42899999999997 C7.04200000000003,1.42899999999997 7.04200000000003,0.48699999999997 7.04200000000003,0.48699999999997 C7.04200000000003,0.25 6.87099999999998,0.05899999999997 6.64999999999998,0.05899999999997 Z "/>
</svg>
